<svg xmlns="http://www.w3.org/2000/svg" width="100" height="100" viewBox="0 0 100 100">
  <g fill="#F9F9F9" fill-rule="evenodd" transform="translate(5 17.5)">
    <path d="M5.25086129,24.4093219 C4.69782945,22.659855 4.40026076,20.8023442 4.40026076,18.877551 C4.40026076,8.45176748 13.1307081,0 23.9002608,0 C33.9771529,0 42.2688012,7.39955208 43.2936974,16.8921203 C44.734149,15.6290911 46.4978195,14.8859544 48.4028683,14.8859544 C53.2632621,14.8859544 57.2033898,19.723214 57.2033898,25.6902761 C57.2033898,27.6582151 56.774829,29.5032675 56.0260353,31.09244 L57.650195,31.092437 C62.8713744,31.092437 67.1039765,35.3250391 67.1039765,40.5462185 C67.1039765,45.7673978 62.8713744,50 57.650195,50 L9.45378151,50 C4.23260215,50 6.39410059e-16,45.7673978 0,40.5462185 C-4.4925819e-16,36.877747 2.08949111,33.6973022 5.14326276,32.1300949 C4.66858469,31.0115085 4.40026076,29.7399025 4.40026076,28.3913565 C4.40026076,26.9440378 4.70933034,25.5853425 5.25086129,24.4093219 Z M40.7796999,31.092437 C40.5206984,30.5427551 40.30001,29.9624594 40.1221175,29.3570537 C39.7049633,29.9610238 39.2527739,30.5403929 38.7683629,31.092437 L40.7796999,31.092437 Z" transform="translate(22)"/>
    <path stroke="#797979" stroke-width="2" d="M17.0496122,18.512108 C17.0493244,18.4688916 17.0491803,18.4256397 17.0491803,18.3823529 C17.0491803,8.23005975 24.9759421,0 34.7540984,0 C42.9864071,0 49.9064304,5.83354215 51.8886794,13.7364172 C53.5533336,12.4908195 55.553504,11.7647059 57.704918,11.7647059 C63.499381,11.7647059 68.1967213,17.0319441 68.1967213,23.5294118 C68.1967213,25.6722773 67.6858005,27.6813331 66.7931048,29.4117647 L69.7058824,29.4117647 C75.3911665,29.4117647 80,34.0205982 80,39.7058824 C80,45.3911665 75.3911665,50 69.7058824,50 L10.2941176,50 C4.60883346,50 6.96246508e-16,45.3911665 0,39.7058824 C-5.1178869e-16,35.5268106 2.49026935,31.9293723 6.06783052,30.3165452 C5.54122383,29.1541241 5.24590164,27.849283 5.24590164,26.4705882 C5.24590164,21.5974875 8.9354276,17.6470588 13.4866885,17.6470588 C14.7628639,17.6470588 15.9712859,17.9576588 17.0496122,18.512108 Z" transform="translate(0 15)"/>
  </g>
</svg>
