<svg xmlns="http://www.w3.org/2000/svg" width="50" height="50" viewBox="0 0 50 50">
  <path fill="#4A4A4A" fill-rule="evenodd" d="M28.191805,13.2733529 L27.8903657,26.103777 L34.9841739,28.6857121 L33.9977042,31.3960153 L21.2235611,26.7466075 L21.4088551,23.7902585 L20.8325503,13.2733529 L7.80089527,13.2733529 C7.24861052,13.2733529 6.80089527,12.8256377 6.80089527,12.2733529 L6.80089527,1.08823529 C6.80089527,0.535950544 7.24861052,0.0882352941 7.80089527,0.0882352941 L31.7293085,0.0882352941 C32.2815932,0.0882352941 32.7293085,0.535950544 32.7293085,1.08823529 L32.7293085,12.2733529 C32.7293085,12.8256377 32.2815932,13.2733529 31.7293085,13.2733529 L28.191805,13.2733529 Z M27.4865984,13.2733529 L23.4156244,13.2733529 L24.0752466,24.7151872 L27.2566811,25.8731347 L27.4865984,13.2733529 Z M-5.41788836e-14,3.96967563 L5.04107892,3.38451471 L5.10067145,9.97707353 L-5.41788836e-14,9.37113453 L-5.41788836e-14,3.96967563 Z" transform="rotate(-20 55.55 1.023)"/>
</svg>
