<?xml version="1.0" encoding="UTF-8"?>
<svg width="50px" height="50px" viewBox="0 0 50 50" version="1.1" xmlns="http://www.w3.org/2000/svg" xmlns:xlink="http://www.w3.org/1999/xlink">
    <!-- Generator: Sketch 47.1 (45422) - http://www.bohemiancoding.com/sketch -->
    <title>icons/cctv_icon_active</title>
    <desc>Created with Sketch.</desc>
    <defs></defs>
    <g id="City-Dashboard" stroke="none" stroke-width="1" fill="none" fill-rule="evenodd">
        <g id="Desktop-(Out-of-date-versions)" transform="translate(-12978.000000, -2544.000000)"></g>
        <g id="icons/cctv_icon_active" fill="#4A4A4A">
            <g id="Camera" transform="translate(25.212661, 27.816153) rotate(-20.000000) translate(-25.212661, -27.816153) translate(10.212661, 14.316153)">
                <path d="M23.5301113,11.0931101 L23.2785169,21.8019423 L29.199319,23.956938 L28.3759683,26.2190754 L17.7141107,22.3384766 L17.8687651,19.8709787 L17.387756,11.0931101 L6.67632411,11.0931101 L6.67632411,11.0931101 C6.12403936,11.0931101 5.67632411,10.6453949 5.67632411,10.0931101 L5.67632411,1.08823529 L5.67632411,1.08823529 C5.67632411,0.535950544 6.12403936,0.0882352941 6.67632411,0.0882352941 L26.3173098,0.0882352941 C26.8695945,0.0882352941 27.3173098,0.535950544 27.3173098,1.08823529 L27.3173098,10.0931101 L27.3173098,10.0931101 C27.3173098,10.6453949 26.8695945,11.0931101 26.3173098,11.0931101 L23.5301113,11.0931101 Z M22.9415151,11.0931101 L19.5437025,11.0931101 L20.0942519,20.6429646 L22.7496161,21.6094381 L22.9415151,11.0931101 Z M-5.41788836e-14,3.32785486 L4.20750456,2.83945401 L4.25724308,8.34189143 L-5.41788836e-14,7.83614828 L-5.41788836e-14,3.32785486 Z" id="Combined-Shape"></path>
            </g>
        </g>
    </g>
</svg>