<?xml version="1.0" encoding="UTF-8"?>
<svg width="50px" height="50px" viewBox="0 0 50 50" version="1.1" xmlns="http://www.w3.org/2000/svg" xmlns:xlink="http://www.w3.org/1999/xlink">
    <!-- Generator: Sketch 47.1 (45422) - http://www.bohemiancoding.com/sketch -->
    <title>icons/cctv_icon</title>
    <desc>Created with Sketch.</desc>
    <defs></defs>
    <g id="City-Dashboard" stroke="none" stroke-width="1" fill="none" fill-rule="evenodd">
        <g id="Desktop-(Out-of-date-versions)" transform="translate(-13975.000000, -2846.000000)"></g>
        <g id="icons/cctv_icon" fill="#F9F9F9">
            <g id="Camera" transform="translate(24.893260, 26.126268) rotate(-20.000000) translate(-24.893260, -26.126268) translate(10.393260, 12.626268)">
                <path d="M22.7457742,11.0931101 L22.5026087,21.8000773 L28.2397308,23.888219 L27.4163801,26.1503565 L17.1099178,22.399111 L17.2808844,20.0171851 L16.8081642,11.0931101 L6.48711331,11.0931101 L6.48711331,11.0931101 C5.93482856,11.0931101 5.48711331,10.6453949 5.48711331,10.0931101 L5.48711331,1.08823529 C5.48711331,0.535950544 5.93482856,0.0882352941 6.48711331,0.0882352941 L6.48711331,0.0882352941 L25.4067328,0.0882352941 L25.4067328,0.0882352941 C25.9590175,0.0882352941 26.4067328,0.535950544 26.4067328,1.08823529 L26.4067328,10.0931101 C26.4067328,10.6453949 25.9590175,11.0931101 25.4067328,11.0931101 L22.7457742,11.0931101 Z M22.1767979,11.0931101 L18.8922457,11.0931101 L19.4265341,20.6804777 L21.991216,21.6139456 L22.1767979,11.0931101 Z M-5.41788836e-14,3.32785486 L4.06725441,2.83945401 L4.11533498,8.34189143 L-5.41788836e-14,7.83614828 L-5.41788836e-14,3.32785486 Z" id="Combined-Shape"></path>
            </g>
        </g>
    </g>
</svg>