<svg xmlns="http://www.w3.org/2000/svg" width="50" height="50" viewBox="0 0 50 50">
  <path fill="#F9F9F9" fill-rule="evenodd" d="M28.7147472,13.3075999 L28.413308,26.138024 L35.5071162,28.719959 L34.5206465,31.4302623 L21.7465033,26.7808544 L21.9317973,23.8245055 L21.3554926,13.3075999 L8.32383755,13.3075999 C7.7715528,13.3075999 7.32383755,12.8598846 7.32383755,12.3075999 L7.32383755,1.12248224 C7.32383755,0.570197494 7.7715528,0.122482243 8.32383755,0.122482243 L32.2522508,0.122482243 C32.8045355,0.122482243 33.2522508,0.570197494 33.2522508,1.12248224 L33.2522508,12.3075999 C33.2522508,12.8598846 32.8045355,13.3075999 32.2522508,13.3075999 L28.7147472,13.3075999 Z M28.0095407,13.3075999 L23.9385667,13.3075999 L24.5981889,24.7494342 L27.7796234,25.9073817 L28.0095407,13.3075999 Z M0.522942281,4.00392258 L5.5640212,3.41876166 L5.62361373,10.0113205 L0.522942281,9.40538148 L0.522942281,4.00392258 Z" transform="rotate(-20 56.53 1.206)"/>
</svg>
