<?xml version="1.0" encoding="UTF-8"?>
<svg width="35px" height="50px" viewBox="0 0 35 50" version="1.1" xmlns="http://www.w3.org/2000/svg" xmlns:xlink="http://www.w3.org/1999/xlink">
    <!-- Generator: Sketch 47.1 (45422) - http://www.bohemiancoding.com/sketch -->
    <title>cam_marker_neutral</title>
    <desc>Created with Sketch.</desc>
    <defs></defs>
    <g id="Symbols" stroke="none" stroke-width="1" fill="none" fill-rule="evenodd">
        <g id="cam_marker_neutral">
            <g id="CCTV-icon">
                <circle id="Oval" fill="#FFFFFF" cx="17.5" cy="17.5" r="15.5"></circle>
                <g id="Marker-shape---template" fill="#4A4A4A">
                    <path d="M17.5,0 C7.825,0 0,7.825 0,17.5 C0,30.625 17.5,50 17.5,50 C17.5,50 35,30.625 35,17.5 C35,7.825 27.175,0 17.5,0 L17.5,0 Z M17.5,33 C8.944,33 2,26.056 2,17.5 C2,8.944 8.944,2 17.5,2 C26.056,2 33,8.944 33,17.5 C33,26.056 26.056,33 17.5,33 L17.5,33 Z" id="Marker-shape"></path>
                </g>
                <g id="Camera" transform="translate(16.756820, 19.159148) rotate(-20.000000) translate(-16.756820, -19.159148) translate(5.756820, 9.159148)">
                    <polygon id="Rectangle-2" fill="#4A4A4A" points="0.755060406 2.88374227 3.72001059 2.52869899 3.75506041 6.52869899 0.755060406 6.16104872"></polygon>
                    <rect id="Rectangle" fill="#4A4A4A" x="4.75506041" y="0.528698988" width="15.25" height="8" rx="1"></rect>
                    <polygon id="Rectangle-3" fill="#4A4A4A" points="13 8.38019169 14.5016634 8.07274567 14.9266003 15.6766544 13.376205 15.4624605"></polygon>
                    <polygon id="Rectangle-4" fill="#4A4A4A" transform="translate(17.049783, 17.203639) rotate(20.000000) translate(-17.049783, -17.203639) " points="12.80223 16.3286388 21.2973361 16.3286388 21.2973361 18.0786388 13.3019421 18.0786388"></polygon>
                    <path d="M16.5822125,8.11592957 L17.2041427,17.0944151" id="Line" stroke="#4A4A4A" stroke-width="0.5" stroke-linecap="square"></path>
                </g>
            </g>
        </g>
    </g>
</svg>