<?xml version="1.0" encoding="UTF-8"?>
<svg width="20px" height="32px" viewBox="0 0 20 32" version="1.1" xmlns="http://www.w3.org/2000/svg" xmlns:xlink="http://www.w3.org/1999/xlink">
    <!-- Generator: Sketch 47.1 (45422) - http://www.bohemiancoding.com/sketch -->
    <title>Hotspot Icon</title>
    <desc>Created with Sketch.</desc>
    <defs></defs>
    <g id="Symbols" stroke="none" stroke-width="1" fill="none" fill-rule="evenodd">
        <g id="Hotspot-Icon">
            <g>
                <g id="Polygon">
                    <path d="M11.7888544,11.1060109 L12,11.5283022 L19.5690577,28.5586821 L19.5690577,28.5586821 C19.8531888,29.1979771 20,29.8897827 20,30.5893744 L20,31.5283022 L0,31.5283022 L0,30.5893744 L1.77635684e-15,30.5893744 C1.69068156e-15,29.8897827 0.146811151,29.1979771 0.430942257,28.5586821 L8,11.5283022 L8.21114562,11.1060109 L8.21114562,11.1060109 C8.70512412,10.1180539 9.9064702,9.71760523 10.8944272,10.2115837 C11.281482,10.4051111 11.595327,10.7189561 11.7888544,11.1060109 Z" id="Triangle-3" fill="#333333" transform="translate(10.000000, 20.764151) scale(1, -1) translate(-10.000000, -20.764151) "></path>
                    <circle id="Oval-8" fill="#333333" cx="10" cy="10" r="10"></circle>
                    <circle id="Oval-9" fill="#FFFFFF" cx="10" cy="10" r="9"></circle>
                </g>
                <g id="Camera" transform="translate(4.000000, 6.000000)">
                    <path d="M4.82232816,1.23008212e-13 L7.09488663,1.20541232e-13 L7.09488663,3.16837899e-05 C7.87572464,3.16837899e-05 8.50871891,0.633025955 8.50871891,1.41386396 C8.50871891,1.83346088 8.32234328,2.2313806 8,2.5 C8,2.5 8,2.5 8,2.5 C6.93680414,3.38599655 8.5,2 5,2.5 C5,2.5 5,2.5 5,2.5 L5,2.5 C4.31312187,2.59812545 3.67675074,2.1208471 3.57862529,1.43396897 C3.48049984,0.747090838 3.95777819,0.110719703 4.64465632,0.0125942564 C4.70350694,0.00418702595 4.76288006,-3.2492411e-05 4.82232816,-3.2492411e-05 Z" id="Rectangle-2" fill="#333333"></path>
                    <rect id="Rectangle" fill="#333333" x="0" y="1" width="12" height="7" rx="1"></rect>
                    <circle id="Oval" fill="#FFFFFF" cx="6" cy="4" r="2"></circle>
                    <circle id="Oval-2" fill="#333333" cx="6" cy="4" r="1"></circle>
                </g>
            </g>
        </g>
    </g>
</svg>