<?xml version="1.0" encoding="UTF-8"?>
<svg width="50px" height="50px" viewBox="0 0 50 50" version="1.1" xmlns="http://www.w3.org/2000/svg" xmlns:xlink="http://www.w3.org/1999/xlink">
    <!-- Generator: Sketch 47.1 (45422) - http://www.bohemiancoding.com/sketch -->
    <title>icons/event-icon_active</title>
    <desc>Created with Sketch.</desc>
    <defs>
        <rect id="path-1" x="0.875" y="0.676578884" width="33.25" height="3.58974359"></rect>
        <path d="M1,0 L2.5,0 L2.5,0 C3.05228475,-1.01453063e-16 3.5,0.44771525 3.5,1 L3.5,3.36188265 L0,3.36188265 L0,1 L0,1 C-6.76353751e-17,0.44771525 0.44771525,1.01453063e-16 1,0 Z" id="path-2"></path>
        <path d="M18.5,0 L20,0 L20,0 C20.5522847,-1.01453063e-16 21,0.44771525 21,1 L21,3.36188265 L17.5,3.36188265 L17.5,1 L17.5,1 C17.5,0.44771525 17.9477153,1.01453063e-16 18.5,0 Z" id="path-3"></path>
    </defs>
    <g id="City-Dashboard" stroke="none" stroke-width="1" fill="none" fill-rule="evenodd">
        <g id="Desktop-(Out-of-date-versions)" transform="translate(-12598.000000, -2544.000000)"></g>
        <g id="icons/event-icon_active">
            <g id="Evenementen-Icon" transform="translate(7.500000, 7.500000)">
                <g id="Calendar">
                    <path d="M10.3333333,23.0016543 L10.3333333,23.3176179 L25.8333333,23.3176179 L25.8333333,13.7377998 L25.5,13.7377998 L25.5,23.0016543 L10.3333333,23.0016543 Z" id="Rectangle-52" stroke="#4A4A4A" stroke-width="2" transform="translate(18.083333, 18.527709) scale(-1, 1) rotate(45.000000) translate(-18.083333, -18.527709) "></path>
                    <g id="Box" transform="translate(0.000000, 3.361883)">
                        <rect id="Rectangle" stroke="#4A4A4A" x="0.5" y="0.5" width="34" height="30.3775714"></rect>
                        <g id="Rectangle-3">
                            <use fill="#4A4A4A" fill-rule="evenodd" xlink:href="#path-1"></use>
                            <rect stroke="#4A4A4A" stroke-width="1" x="1.375" y="1.17657888" width="32.25" height="2.58974359"></rect>
                        </g>
                    </g>
                    <g id="Hinges" transform="translate(7.000000, 0.000000)">
                        <g id="Rectangle-2">
                            <use fill="#4A4A4A" fill-rule="evenodd" xlink:href="#path-2"></use>
                            <path stroke="#4A4A4A" stroke-width="1" d="M0.5,2.86188265 L3,2.86188265 L3,1 C3,0.723857625 2.77614237,0.5 2.5,0.5 L1,0.5 C0.723857625,0.5 0.5,0.723857625 0.5,1 L0.5,2.86188265 Z"></path>
                        </g>
                        <g id="Rectangle-2">
                            <use fill="#4A4A4A" fill-rule="evenodd" xlink:href="#path-3"></use>
                            <path stroke="#4A4A4A" stroke-width="1" d="M18,2.86188265 L20.5,2.86188265 L20.5,1 C20.5,0.723857625 20.2761424,0.5 20,0.5 L18.5,0.5 C18.2238576,0.5 18,0.723857625 18,1 L18,2.86188265 Z"></path>
                        </g>
                    </g>
                </g>
            </g>
        </g>
    </g>
</svg>