<svg xmlns="http://www.w3.org/2000/svg" xmlns:xlink="http://www.w3.org/1999/xlink" width="50" height="50" viewBox="0 0 50 50">
  <defs>
    <rect id="event-icon_active-a" width="33.25" height="3.59" x=".875" y=".677"/>
    <path id="event-icon_active-b" d="M1,0 L2.5,0 C3.05228475,-1.01453063e-16 3.5,0.44771525 3.5,1 L3.5,3.36188265 L0,3.36188265 L0,1 C-6.76353751e-17,0.44771525 0.44771525,1.01453063e-16 1,0 Z"/>
    <path id="event-icon_active-c" d="M18.5,0 L20,0 C20.5522847,-1.01453063e-16 21,0.44771525 21,1 L21,3.36188265 L17.5,3.36188265 L17.5,1 C17.5,0.44771525 17.9477153,1.01453063e-16 18.5,0 Z"/>
  </defs>
  <g fill="none" fill-rule="evenodd" transform="translate(7.5 7.5)">
    <g transform="translate(0 3.362)">
      <rect width="34" height="30.378" x=".5" y=".5" stroke="#666666"/>
      <use fill="#666666" xlink:href="#event-icon_active-a"/>
      <rect width="32.25" height="2.59" x="1.375" y="1.177" stroke="#666666"/>
    </g>
    <g transform="translate(7)">
      <use fill="#666666" xlink:href="#event-icon_active-b"/>
      <path stroke="#666666" d="M0.5,2.86188265 L3,2.86188265 L3,1 C3,0.723857625 2.77614237,0.5 2.5,0.5 L1,0.5 C0.723857625,0.5 0.5,0.723857625 0.5,1 L0.5,2.86188265 Z"/>
      <g>
        <use fill="#666666" xlink:href="#event-icon_active-c"/>
        <path stroke="#666666" d="M18,2.86188265 L20.5,2.86188265 L20.5,1 C20.5,0.723857625 20.2761424,0.5 20,0.5 L18.5,0.5 C18.2238576,0.5 18,0.723857625 18,1 L18,2.86188265 Z"/>
      </g>
    </g>
  </g>
</svg>
