<svg xmlns="http://www.w3.org/2000/svg" width="35" height="50" viewBox="0 0 35 50">
  <g fill="none" fill-rule="evenodd">
    <circle cx="17.5" cy="17.5" r="15.5" fill="#F5A623"/>
    <path fill="#4A4A4A" d="M17.5,0 C7.825,0 0,7.825 0,17.5 C0,30.625 17.5,50 17.5,50 C17.5,50 35,30.625 35,17.5 C35,7.825 27.175,0 17.5,0 L17.5,0 Z M17.5,33 C8.944,33 2,26.056 2,17.5 C2,8.944 8.944,2 17.5,2 C26.056,2 33,8.944 33,17.5 C33,26.056 26.056,33 17.5,33 L17.5,33 Z"/>
    <g stroke="#4A4A4A" transform="translate(7.5 7.5)">
      <g transform="translate(0 1.935)">
        <rect width="19" height="17.065" x=".5" y=".5"/>
        <rect width="17.667" height="1" x="1.167" y="1.145" fill="#4A4A4A"/>
      </g>
      <g fill="#4A4A4A" transform="translate(4)">
        <path d="M.5 1.43548387L1.5 1.43548387 1.5 1C1.5.723857625 1.27614237.5 1 .5.723857625.5.5.723857625.5 1L.5 1.43548387zM10.5 1.43548387L11.5 1.43548387 11.5 1C11.5.723857625 11.2761424.5 11 .5 10.7238576.5 10.5.723857625 10.5 1L10.5 1.43548387z"/>
      </g>
      <g stroke-linecap="square" transform="translate(0 4)">
        <path d="M1 10L19 10M1 5L19 5M13 1L13 15M7 1L7 15"/>
      </g>
    </g>
  </g>
</svg>
