<?xml version="1.0" encoding="UTF-8"?>
<svg width="40px" height="40px" viewBox="0 0 40 40" version="1.1" xmlns="http://www.w3.org/2000/svg" xmlns:xlink="http://www.w3.org/1999/xlink">
    <!-- Generator: Sketch 47.1 (45422) - http://www.bohemiancoding.com/sketch -->
    <title>event_icon_active</title>
    <desc>Created with Sketch.</desc>
    <defs>
        <rect id="path-1" x="1" y="0.936524454" width="28" height="2.80957336"></rect>
        <path d="M1,0 L2,0 L2,0 C2.55228475,-1.01453063e-16 3,0.44771525 3,1 L3,2.80957336 L0,2.80957336 L0,1 L0,1 C-6.76353751e-17,0.44771525 0.44771525,3.23497668e-16 1,2.22044605e-16 Z" id="path-2"></path>
        <path d="M16,0 L17,0 L17,0 C17.5522847,-1.01453063e-16 18,0.44771525 18,1 L18,2.80957336 L15,2.80957336 L15,1 L15,1 C15,0.44771525 15.4477153,3.23497668e-16 16,2.22044605e-16 Z" id="path-3"></path>
    </defs>
    <g id="Symbols" stroke="none" stroke-width="1" fill="none" fill-rule="evenodd">
        <g id="event_icon_active">
            <g id="Evenementen-Icon" transform="translate(5.000000, 5.000000)">
                <g id="Calendar">
                    <path d="M22,11.6451613 L22,10.6451613 L21,11.6451613 L22,11.6451613 Z M22,11.6451613 L23,11.6451613 L22,10.6451613 L22,11.6451613 Z M22,19.3225806 L22,20.3225806 L23,19.3225806 L22,19.3225806 Z M22,11.6451613 L22,15.016129 L22,11.6451613 Z M22,19.3225806 L9,19.3225806 L9,18.3870968 L8.06451613,19.3225806 L8,19.3225806 L8.03225806,19.3548387 L8,19.3870968 L8.06451613,19.3870968 L9,20.3225806 L9,19.3870968 L22,19.3870968 L22,18.8548387 L22,19.3225806 Z" id="Rectangle-52" stroke="#4A4A4A" stroke-width="2" transform="translate(15.500000, 15.483871) scale(-1, 1) rotate(45.000000) translate(-15.500000, -15.483871) "></path>
                    <g id="Box" transform="translate(0.000000, 2.809573)">
                        <rect id="Rectangle" stroke="#4A4A4A" x="0.5" y="0.5" width="29" height="25.2226847"></rect>
                        <g id="Rectangle-3">
                            <use fill="#4A4A4A" fill-rule="evenodd" xlink:href="#path-1"></use>
                            <rect stroke="#4A4A4A" stroke-width="1" x="1.5" y="1.43652445" width="27" height="1.80957336"></rect>
                        </g>
                    </g>
                    <g id="Hinges" transform="translate(6.000000, 0.000000)">
                        <g id="Rectangle-2">
                            <use fill="#4A4A4A" fill-rule="evenodd" xlink:href="#path-2"></use>
                            <path stroke="#4A4A4A" stroke-width="1" d="M0.5,2.30957336 L2.5,2.30957336 L2.5,1 C2.5,0.723857625 2.27614237,0.5 2,0.5 L1,0.5 C0.723857625,0.5 0.5,0.723857625 0.5,1 L0.5,2.30957336 Z"></path>
                        </g>
                        <g id="Rectangle-2">
                            <use fill="#4A4A4A" fill-rule="evenodd" xlink:href="#path-3"></use>
                            <path stroke="#4A4A4A" stroke-width="1" d="M15.5,2.30957336 L17.5,2.30957336 L17.5,1 C17.5,0.723857625 17.2761424,0.5 17,0.5 L16,0.5 C15.7238576,0.5 15.5,0.723857625 15.5,1 L15.5,2.30957336 Z"></path>
                        </g>
                    </g>
                </g>
            </g>
        </g>
    </g>
</svg>