<?xml version="1.0" encoding="UTF-8"?>
<svg width="50px" height="50px" viewBox="0 0 50 50" version="1.1" xmlns="http://www.w3.org/2000/svg" xmlns:xlink="http://www.w3.org/1999/xlink">
    <!-- Generator: Sketch 47.1 (45422) - http://www.bohemiancoding.com/sketch -->
    <title>icons/events_icon</title>
    <desc>Created with Sketch.</desc>
    <defs>
        <rect id="path-1" x="1" y="1" width="38" height="4"></rect>
        <path d="M1,0 L3,0 L3,0 C3.55228475,-1.01453063e-16 4,0.44771525 4,1 L4,4 L0,4 L0,1 L0,1 C-6.76353751e-17,0.44771525 0.44771525,1.01453063e-16 1,0 Z" id="path-2"></path>
        <path d="M21,0 L23,0 L23,0 C23.5522847,-1.01453063e-16 24,0.44771525 24,1 L24,4 L20,4 L20,1 L20,1 C20,0.44771525 20.4477153,1.01453063e-16 21,0 Z" id="path-3"></path>
    </defs>
    <g id="City-Dashboard" stroke="none" stroke-width="1" fill="none" fill-rule="evenodd">
        <g id="Desktop-(Out-of-date-versions)" transform="translate(-13595.000000, -2846.000000)"></g>
        <g id="icons/events_icon">
            <g id="Evenementen-Icon" transform="translate(5.000000, 5.000000)">
                <g id="Calendar">
                    <g id="Box" transform="translate(0.000000, 4.000000)">
                        <rect id="Rectangle" stroke="#F9F9F9" x="0.5" y="0.5" width="39" height="34"></rect>
                        <g id="Rectangle-3">
                            <use fill="#F9F9F9" fill-rule="evenodd" xlink:href="#path-1"></use>
                            <rect stroke="#F9F9F9" stroke-width="1" x="1.5" y="1.5" width="37" height="3"></rect>
                        </g>
                    </g>
                    <g id="Hinges" transform="translate(8.000000, 0.000000)">
                        <g id="Rectangle-2">
                            <use fill="#F9F9F9" fill-rule="evenodd" xlink:href="#path-2"></use>
                            <path stroke="#F9F9F9" stroke-width="1" d="M0.5,3.5 L3.5,3.5 L3.5,1 C3.5,0.723857625 3.27614237,0.5 3,0.5 L1,0.5 C0.723857625,0.5 0.5,0.723857625 0.5,1 L0.5,3.5 Z"></path>
                        </g>
                        <g id="Rectangle-2">
                            <use fill="#F9F9F9" fill-rule="evenodd" xlink:href="#path-3"></use>
                            <path stroke="#F9F9F9" stroke-width="1" d="M20.5,3.5 L23.5,3.5 L23.5,1 C23.5,0.723857625 23.2761424,0.5 23,0.5 L21,0.5 C20.7238576,0.5 20.5,0.723857625 20.5,1 L20.5,3.5 Z"></path>
                        </g>
                    </g>
                    <path d="M12,25.4 L12,26 L30,26 L30,15 L29.3333333,15 L29.3333333,25.4 L12,25.4 Z" id="Rectangle-52" stroke="#F9F9F9" stroke-width="2" transform="translate(21.000000, 20.500000) scale(-1, 1) rotate(45.000000) translate(-21.000000, -20.500000) "></path>
                </g>
            </g>
        </g>
    </g>
</svg>