<?xml version="1.0" encoding="UTF-8"?>
<svg width="35px" height="50px" viewBox="0 0 35 50" version="1.1" xmlns="http://www.w3.org/2000/svg" xmlns:xlink="http://www.w3.org/1999/xlink">
    <!-- Generator: Sketch 47.1 (45422) - http://www.bohemiancoding.com/sketch -->
    <title>events_marker_none</title>
    <desc>Created with Sketch.</desc>
    <defs>
        <rect id="path-1" x="0.666666667" y="0.64516129" width="18.6666667" height="1.93548387"></rect>
        <path d="M1,0 L1,0 L1,0 C1.55228475,-1.01453063e-16 2,0.44771525 2,1 L2,1.93548387 L0,1.93548387 L0,1 L0,1 C-6.76353751e-17,0.44771525 0.44771525,1.01453063e-16 1,0 Z" id="path-2"></path>
        <path d="M11,0 L11,0 L11,0 C11.5522847,-1.01453063e-16 12,0.44771525 12,1 L12,1.93548387 L10,1.93548387 L10,1 L10,1 C10,0.44771525 10.4477153,1.01453063e-16 11,0 Z" id="path-3"></path>
    </defs>
    <g id="Symbols" stroke="none" stroke-width="1" fill="none" fill-rule="evenodd">
        <g id="events_marker_none">
            <circle id="Oval" fill="#FF0000" cx="17.5" cy="17.5" r="15.5"></circle>
            <g id="Marker-shape---template" fill="#4A4A4A">
                <path d="M17.5,0 C7.825,0 0,7.825 0,17.5 C0,30.625 17.5,50 17.5,50 C17.5,50 35,30.625 35,17.5 C35,7.825 27.175,0 17.5,0 L17.5,0 Z M17.5,33 C8.944,33 2,26.056 2,17.5 C2,8.944 8.944,2 17.5,2 C26.056,2 33,8.944 33,17.5 C33,26.056 26.056,33 17.5,33 L17.5,33 Z" id="Marker-shape"></path>
            </g>
            <g id="Markers/event_template" transform="translate(7.000000, 7.000000)">
                <g id="Calendar" transform="translate(0.500000, 0.500000)">
                    <g id="Box" transform="translate(0.000000, 1.935484)">
                        <rect id="Rectangle" stroke="#4A4A4A" x="0.5" y="0.5" width="19" height="17.0645161"></rect>
                        <g id="Rectangle-3">
                            <use fill="#4A4A4A" fill-rule="evenodd" xlink:href="#path-1"></use>
                            <rect stroke="#4A4A4A" stroke-width="1" x="1.16666667" y="1.14516129" width="17.6666667" height="1"></rect>
                        </g>
                    </g>
                    <polyline id="Line-2" stroke="#4A4A4A" stroke-linecap="square" points="6 12 9 15 15 8.5"></polyline>
                    <g id="Hinges" transform="translate(4.000000, 0.000000)">
                        <g id="Rectangle-2">
                            <use fill="#4A4A4A" fill-rule="evenodd" xlink:href="#path-2"></use>
                            <path stroke="#4A4A4A" stroke-width="1" d="M0.5,1.43548387 L1.5,1.43548387 L1.5,1 C1.5,0.723857625 1.27614237,0.5 1,0.5 C0.723857625,0.5 0.5,0.723857625 0.5,1 L0.5,1.43548387 Z"></path>
                        </g>
                        <g id="Rectangle-2">
                            <use fill="#4A4A4A" fill-rule="evenodd" xlink:href="#path-3"></use>
                            <path stroke="#4A4A4A" stroke-width="1" d="M10.5,1.43548387 L11.5,1.43548387 L11.5,1 C11.5,0.723857625 11.2761424,0.5 11,0.5 C10.7238576,0.5 10.5,0.723857625 10.5,1 L10.5,1.43548387 Z"></path>
                        </g>
                    </g>
                </g>
            </g>
        </g>
    </g>
</svg>