<?xml version="1.0" encoding="UTF-8"?>
<svg width="35px" height="50px" viewBox="0 0 35 50" version="1.1" xmlns="http://www.w3.org/2000/svg" xmlns:xlink="http://www.w3.org/1999/xlink">
    <!-- Generator: Sketch 47.1 (45422) - http://www.bohemiancoding.com/sketch -->
    <title>events_marker_some</title>
    <desc>Created with Sketch.</desc>
    <defs>
        <rect id="path-1" x="0.733333333" y="0.709677419" width="20.5333333" height="2.12903226"></rect>
        <path d="M1,0 L1.2,0 L1.2,0 C1.75228475,-1.01453063e-16 2.2,0.44771525 2.2,1 L2.2,2.12903226 L0,2.12903226 L0,1 L0,1 C-6.76353751e-17,0.44771525 0.44771525,1.01453063e-16 1,0 Z" id="path-2"></path>
        <path d="M12,0 L12.2,0 L12.2,0 C12.7522847,-1.01453063e-16 13.2,0.44771525 13.2,1 L13.2,2.12903226 L11,2.12903226 L11,1 L11,1 C11,0.44771525 11.4477153,1.01453063e-16 12,0 Z" id="path-3"></path>
    </defs>
    <g id="Symbols" stroke="none" stroke-width="1" fill="none" fill-rule="evenodd">
        <g id="events_marker_some">
            <circle id="Oval" fill="#F5A623" cx="17.5" cy="17.5" r="15.5"></circle>
            <g id="Marker-shape---template" fill="#4A4A4A">
                <path d="M17.5,0 C7.825,0 0,7.825 0,17.5 C0,30.625 17.5,50 17.5,50 C17.5,50 35,30.625 35,17.5 C35,7.825 27.175,0 17.5,0 L17.5,0 Z M17.5,33 C8.944,33 2,26.056 2,17.5 C2,8.944 8.944,2 17.5,2 C26.056,2 33,8.944 33,17.5 C33,26.056 26.056,33 17.5,33 L17.5,33 Z" id="Marker-shape"></path>
            </g>
            <g id="Evenementen-Icon" transform="translate(6.500000, 6.000000)">
                <g id="Calendar">
                    <path d="M16.4,14.9333333 L16.4,8.06666667 L15.4,9.06666667 L16.8666667,9.06666667 L15.8666667,8.06666667 L15.8666667,15.4 L16.8666667,14.4 L5.86666667,14.4 L6.86666667,15.4 L6.86666667,13.9333333 L5.86666667,14.9333333 L16.4,14.9333333 Z" id="Rectangle-52" stroke="#4A4A4A" stroke-width="2" transform="translate(11.366667, 11.733333) scale(-1, 1) rotate(45.000000) translate(-11.366667, -11.733333) "></path>
                    <g id="Box" transform="translate(0.000000, 2.129032)">
                        <rect id="Rectangle" stroke="#4A4A4A" x="0.5" y="0.5" width="21" height="18.8709677"></rect>
                        <g id="Rectangle-3">
                            <use fill="#4A4A4A" fill-rule="evenodd" xlink:href="#path-1"></use>
                            <rect stroke="#4A4A4A" stroke-width="1" x="1.23333333" y="1.20967742" width="19.5333333" height="1.12903226"></rect>
                        </g>
                    </g>
                    <g id="Hinges" transform="translate(4.400000, 0.000000)">
                        <g id="Rectangle-2">
                            <use fill="#4A4A4A" fill-rule="evenodd" xlink:href="#path-2"></use>
                            <path stroke="#4A4A4A" stroke-width="1" d="M0.5,1.62903226 L1.7,1.62903226 L1.7,1 C1.7,0.723857625 1.47614237,0.5 1.2,0.5 L1,0.5 C0.723857625,0.5 0.5,0.723857625 0.5,1 L0.5,1.62903226 Z"></path>
                        </g>
                        <g id="Rectangle-2">
                            <use fill="#4A4A4A" fill-rule="evenodd" xlink:href="#path-3"></use>
                            <path stroke="#4A4A4A" stroke-width="1" d="M11.5,1.62903226 L12.7,1.62903226 L12.7,1 C12.7,0.723857625 12.4761424,0.5 12.2,0.5 L12,0.5 C11.7238576,0.5 11.5,0.723857625 11.5,1 L11.5,1.62903226 Z"></path>
                        </g>
                    </g>
                </g>
            </g>
        </g>
    </g>
</svg>