<svg xmlns="http://www.w3.org/2000/svg" width="50" height="50" viewBox="0 0 50 50">
  <g fill="none" fill-rule="evenodd" transform="translate(7.5 7.5)">
    <g stroke="#F9F9F9" transform="translate(.486 11.422)">
      <path stroke-linecap="square" d="M20.1630943 4.6796944L24.334769 4.6796944M22.4407328 4.87070234L22.2489316 6.68527772M8.63105106 7.03545893L9.20645447 7.03545893"/>
      <path d="M17.4510989,6.69342458 L20.691209,13.8144408 L22.3663749,17.0924512 C22.3915069,17.1416302 22.372013,17.2018711 22.322834,17.227003 C22.3087456,17.2342026 22.29315,17.2379567 22.2773286,17.2379567 L9.20645447,17.2379567 L17.2806276,6.67411392 C17.3141655,6.63023461 17.3769245,6.62185125 17.4208038,6.65538915 C17.4338778,6.6653819 17.4442838,6.6784466 17.4510989,6.69342458 Z" transform="matrix(1 0 0 -1 0 23.923)"/>
      <path stroke-linecap="square" d="M5.56223291 17.3817221L9.03862847 2.00558332M9.20645447 2.00558332L13.2103032 2.00558332"/>
      <path d="M22.3436486,6.867423 L27.8111645,17.3817221 L18.7725361,17.3817221 L17.5373435,17.3817221 C17.482115,17.3817221 17.4373435,17.3369505 17.4373435,17.2817221 C17.4373435,17.2674341 17.4404053,17.253312 17.4463226,17.240307 L22.1639063,6.87214373 C22.1867793,6.82187431 22.2460728,6.79966507 22.2963422,6.82253799 C22.3166835,6.83179337 22.3333382,6.84759567 22.3436486,6.867423 Z"/>
      <ellipse cx="5.562" cy="17.382" rx="5.562" ry="5.348"/>
      <ellipse cx="27.811" cy="17.382" rx="5.562" ry="5.348"/>
    </g>
    <path fill="#F9F9F9" d="M5.34722222,5.80019415 C5.34722222,4.98564905 5.50580771,4.25017378 5.82298344,3.59374627 C6.14015917,2.93731875 6.57974701,2.37912416 7.14176015,1.91914576 C7.70377329,1.45916735 8.37150165,1.10460598 9.14496528,0.855451016 C9.9184289,0.606296046 10.761436,0.48172043 11.6740118,0.48172043 C12.5977165,0.48172043 13.4490702,0.606296046 14.2280983,0.855451016 C15.0071264,1.10460598 15.6804192,1.45916735 16.2479968,1.91914576 C16.8155744,2.37912416 17.2579445,2.93731875 17.5751202,3.59374627 C17.8922959,4.25017378 18.0508814,4.98564905 18.0508814,5.80019415 C18.0508814,6.59557347 17.8922959,7.321466 17.5751202,7.97789352 C17.2579445,8.63432103 16.8155744,9.19970268 16.2479968,9.67405541 C15.6804192,10.1484081 15.0071264,10.5173436 14.2280983,10.7808729 C13.4490702,11.0444022 12.5977165,11.1761649 11.6740118,11.1761649 C10.761436,11.1761649 9.9184289,11.0444022 9.14496528,10.7808729 C8.37150165,10.5173436 7.70377329,10.1484081 7.14176015,9.67405541 C6.57974701,9.19970268 6.14015917,8.63432103 5.82298344,7.97789352 C5.50580771,7.321466 5.34722222,6.59557347 5.34722222,5.80019415 Z M7.63421474,5.80019415 C7.63421474,6.3464185 7.7315918,6.84711665 7.92634882,7.30230361 C8.12110585,7.75749058 8.399326,8.15277859 8.76101763,8.48817951 C9.12270925,8.82358043 9.55116829,9.08471009 10.0464076,9.27157631 C10.5416469,9.45844254 11.0897406,9.55187425 11.6907051,9.55187425 C12.2916697,9.55187425 12.8425456,9.45844254 13.3433494,9.27157631 C13.8441531,9.08471009 14.2753944,8.82358043 14.637086,8.48817951 C14.9987776,8.15277859 15.2769978,7.75749058 15.4717548,7.30230361 C15.6665118,6.84711665 15.7638889,6.3464185 15.7638889,5.80019415 C15.7638889,5.27313556 15.6665118,4.78441583 15.4717548,4.33402031 C15.2769978,3.88362479 15.0015598,3.49073246 14.6454327,3.15533154 C14.2893056,2.81993062 13.8608465,2.55640528 13.3600427,2.36474761 C12.8592389,2.17308994 12.3027986,2.07726254 11.6907051,2.07726254 C11.0786116,2.07726254 10.5249535,2.17308994 10.0297142,2.36474761 C9.53447491,2.55640528 9.10879808,2.81993062 8.75267094,3.15533154 C8.3965438,3.49073246 8.12110585,3.88362479 7.92634882,4.33402031 C7.7315918,4.78441583 7.63421474,5.27313556 7.63421474,5.80019415 Z M18.4181357,0.740456989 L20.7719017,0.740456989 L24.02711,8.57442503 L24.0938835,8.57442503 L27.3824786,0.740456989 L29.6527778,0.740456989 L24.911859,10.9174283 L23.092281,10.9174283 L18.4181357,0.740456989 Z"/>
  </g>
</svg>
