<?xml version="1.0" encoding="UTF-8"?>
<svg width="20px" height="32px" viewBox="0 0 20 32" version="1.1" xmlns="http://www.w3.org/2000/svg" xmlns:xlink="http://www.w3.org/1999/xlink">
    <!-- Generator: Sketch 47.1 (45422) - http://www.bohemiancoding.com/sketch -->
    <title>OV fiets Icon</title>
    <desc>Created with Sketch.</desc>
    <defs></defs>
    <g id="Symbols" stroke="none" stroke-width="1" fill="none" fill-rule="evenodd">
        <g id="OV-fiets-Icon">
            <g id="Polygon">
                <g>
                    <path d="M11.7888544,11.1060109 L12,11.5283022 L19.5690577,28.5586821 L19.5690577,28.5586821 C19.8531888,29.1979771 20,29.8897827 20,30.5893744 L20,31.5283022 L0,31.5283022 L0,30.5893744 L1.77635684e-15,30.5893744 C1.69068156e-15,29.8897827 0.146811151,29.1979771 0.430942257,28.5586821 L8,11.5283022 L8.21114562,11.1060109 L8.21114562,11.1060109 C8.70512412,10.1180539 9.9064702,9.71760523 10.8944272,10.2115837 C11.281482,10.4051111 11.595327,10.7189561 11.7888544,11.1060109 Z" id="Triangle-3" fill="#333333" transform="translate(10.000000, 20.764151) scale(1, -1) translate(-10.000000, -20.764151) "></path>
                    <circle id="Oval-8" fill="#333333" cx="10" cy="10" r="10"></circle>
                    <circle id="Oval-9" fill="#FFFFFF" cx="10" cy="10" r="9"></circle>
                </g>
            </g>
            <g id="Fiets" transform="translate(6.000000, 5.000000)" stroke="#333333" stroke-width="0.5">
                <path d="M7.5,2 L9,2" id="Line-4" stroke-linecap="square"></path>
                <path d="M8.25,2.25 L8,3" id="Line-3" stroke-linecap="square"></path>
                <polygon id="Triangle-2" transform="translate(5.375000, 5.000000) scale(1, -1) translate(-5.375000, -5.000000) " points="6.09090909 3 8 7 2.75 7"></polygon>
                <path d="M2,7 L3.5,1.5" id="Line" stroke-linecap="square"></path>
                <path d="M3.5,1.5 L4.5,1.5" id="Line-2" stroke-linecap="square"></path>
                <polygon id="Triangle" points="8 3 10 7 6 7"></polygon>
                <circle id="Oval-3" cx="2" cy="7" r="2"></circle>
                <circle id="Oval-3" cx="10" cy="7" r="2"></circle>
            </g>
            <text id="OV" font-family="AvenirNext-Medium, Avenir Next" font-size="4" font-weight="400" fill="#EC0000">
                <tspan x="2.542" y="9">OV</tspan>
            </text>
        </g>
    </g>
</svg>