<?xml version="1.0" encoding="UTF-8"?>
<svg width="35px" height="72px" viewBox="0 0 35 72" version="1.1" xmlns="http://www.w3.org/2000/svg" xmlns:xlink="http://www.w3.org/1999/xlink">
    <!-- Generator: Sketch 47.1 (45422) - http://www.bohemiancoding.com/sketch -->
    <title>OV fiets poly</title>
    <desc>Created with Sketch.</desc>
    <defs></defs>
    <g id="Symbols" stroke="none" stroke-width="1" fill="none" fill-rule="evenodd">
        <g id="OV-fiets-poly">
            <g id="OV-fiets-Icon">
                <g id="Polygon">
                    <path d="M19.2888544,16.7522375 L21,20.1745288 L34.5690577,50.7049087 L34.5690577,50.7049087 C34.8531888,51.3442037 35,52.0360093 35,52.735601 L35,55.1745288 L0,55.1745288 L0,52.735601 L7.10542736e-15,52.735601 C7.01975208e-15,52.0360093 0.146811151,51.3442037 0.430942257,50.7049087 L14,20.1745288 L15.7111456,16.7522375 L15.7111456,16.7522375 C16.2051241,15.7642805 17.4064702,15.3638319 18.3944272,15.8578103 C18.781482,16.0513378 19.095327,16.3651827 19.2888544,16.7522375 Z" id="Triangle-3" fill="#4a4a4a" transform="translate(17.500000, 36.337264) scale(1, -1) translate(-17.500000, -36.337264) "></path>
                    <circle id="Oval-8" fill="#4a4a4a" cx="17.5" cy="17.5" r="17.5"></circle>
                    <circle id="Oval-9" fill="#FFFFFF" cx="17.5" cy="17.5" r="15.75"></circle>
                </g>
                <g id="Fiets" transform="translate(6.000000, 6.000000)" stroke="#333333" stroke-width="0.5">
                    <path d="M15,4 L18,4" id="Line-4" stroke-linecap="square"></path>
                    <path d="M16.5,4.5 L16,6" id="Line-3" stroke-linecap="square"></path>
                    <polygon id="Triangle-2" transform="translate(10.750000, 10.000000) scale(1, -1) translate(-10.750000, -10.000000) " points="12.1818182 6 16 14 5.5 14"></polygon>
                    <path d="M4,14 L7,3" id="Line" stroke-linecap="square"></path>
                    <path d="M7,3 L9,3" id="Line-2" stroke-linecap="square"></path>
                    <polygon id="Triangle" points="16 6 20 14 12 14"></polygon>
                    <circle id="Oval-3" cx="4" cy="14" r="4"></circle>
                    <circle id="Oval-3" cx="20" cy="14" r="4"></circle>
                </g>
                <text id="OV" font-family="AvenirNext-Medium, Avenir Next" font-size="4" font-weight="400" fill="#EC0000">
                    <tspan x="5.542" y="12">OV</tspan>
                </text>
            </g>
        </g>
    </g>
</svg>