<?xml version="1.0" encoding="UTF-8"?>
<svg width="40px" height="40px" viewBox="0 0 40 40" version="1.1" xmlns="http://www.w3.org/2000/svg" xmlns:xlink="http://www.w3.org/1999/xlink">
    <!-- Generator: Sketch 47.1 (45422) - http://www.bohemiancoding.com/sketch -->
    <title>fiets_icon_active</title>
    <desc>Created with Sketch.</desc>
    <defs></defs>
    <g id="Symbols" stroke="none" stroke-width="1" fill="none" fill-rule="evenodd">
        <g id="fiets_icon_active">
            <g id="OV-fiets-Icon" transform="translate(6.000000, 4.000000)">
                <g id="Fiets" transform="translate(2.000000, 14.754710)" stroke="#4A4A4A">
                    <path d="M14.4133316,3.31845829 L17.3954002,3.31845829" id="Line-4" stroke-linecap="square"></path>
                    <path d="M16.0414725,3.45390556 L15.9043659,4.7406547" id="Line-3" stroke-linecap="square"></path>
                    <path d="M6.16979712,4.9889747 L6.58111693,4.9889747" id="Line-5" stroke-linecap="square"></path>
                    <path d="M12.4943253,4.78922682 L14.7908477,9.79607678 L15.9663655,12.0779598 L15.9663655,12.0779598 C15.9916578,12.1270565 15.9723605,12.1873606 15.9232638,12.2126529 C15.9091009,12.219949 15.8933998,12.2237555 15.877468,12.2237555 L6.58111693,12.2237555 L12.3242162,4.76988454 L12.3242162,4.76988454 C12.3579241,4.72613567 12.4207152,4.71799583 12.4644641,4.7517037 C12.4773139,4.7616043 12.4875623,4.77448227 12.4943253,4.78922682 Z" id="Triangle-2" transform="translate(11.275923, 8.482205) scale(1, -1) translate(-11.275923, -8.482205) "></path>
                    <path d="M3.97609148,12.3257022 L6.46114865,1.42219641" id="Line" stroke-linecap="square"></path>
                    <path d="M6.58111693,1.42219641 L9.44321726,1.42219641" id="Line-2" stroke-linecap="square"></path>
                    <path d="M15.9989211,4.92103422 L19.8804574,12.3257022 L13.4193087,12.3257022 L12.5811709,12.3257022 L12.5811709,12.3257022 C12.5259424,12.3257022 12.4811709,12.2809307 12.4811709,12.2257022 C12.4811709,12.2113119 12.4842767,12.197091 12.4902762,12.184011 L15.8194575,4.92577093 L15.8194575,4.92577093 C15.8424829,4.87557118 15.9018437,4.85354204 15.9520434,4.87656747 C15.9721593,4.88579413 15.9886461,4.90143309 15.9989211,4.92103422 Z" id="Triangle"></path>
                    <ellipse id="Oval-3" cx="3.97609148" cy="12.3257022" rx="3.97609148" ry="3.79252376"></ellipse>
                    <ellipse id="Oval-3" cx="19.8804574" cy="12.3257022" rx="3.97609148" ry="3.79252376"></ellipse>
                </g>
                <text id="OV" font-family="AvenirNext-DemiBold, Avenir Next" font-size="16" font-weight="500" fill="#4A4A4A">
                    <tspan x="2.08" y="16">OV</tspan>
                </text>
            </g>
        </g>
    </g>
</svg>