<?xml version="1.0" encoding="UTF-8"?>
<svg onload="init()" width="35px" height="63px" viewBox="0 0 35 63" version="1.1" xmlns="http://www.w3.org/2000/svg" xmlns:xlink="http://www.w3.org/1999/xlink">
    <!-- Generator: Sketch 48.2 (47327) - http://www.bohemiancoding.com/sketch -->
    <script type="text/javascript"><![CDATA[
    function init()
    {
        // get param elements from referencing object element
        //var params = document.defaultView.location.href.split("?")[1].split("&");
        // split name/value pairs
        //console.log(params);
        // find elements that need to be changed, then set values to to parameter value

        console.log('init loaded');
    }

    ]]></script>
    <title>fiets_marker_plenty</title>
    <desc>Created with Sketch.</desc>
    <defs></defs>
    <g id="Page-1" stroke="none" stroke-width="1" fill="none" fill-rule="evenodd">
        <g id="fiets_marker_plenty">
            <g id="Polygon" fill-rule="nonzero">
                <path d="M19.2888544,24.6060101 L21,28.0283014 L34.5690577,58.5586813 C34.8531888,59.1979763 35,59.8897819 35,60.5893736 L35,63.0283014 L0,63.0283014 L0,60.5893736 C7.01975208e-15,59.8897819 0.146811151,59.1979763 0.430942257,58.5586813 L14,28.0283014 L15.7111456,24.6060101 C16.2051241,23.6180531 17.4064702,23.2176045 18.3944272,23.7115829 C18.781482,23.9051104 19.095327,24.2189553 19.2888544,24.6060101 Z" id="Triangle-3" fill="#4A4A4A" transform="translate(17.500000, 43.264150) scale(-1, 1) rotate(-180.000000) translate(-17.500000, -43.264150) "></path>
                <circle id="Oval-8" fill="#50E6DB" cx="17.5" cy="23.5" r="17.5"></circle>
                <circle id="Oval-81" fill="#50E6DB" cx="17.5" cy="10" r="10"></circle>
                <circle id="Oval-9" fill="#FFFFFF" cx="17.5" cy="23.5" r="15.75"></circle>
            </g>
            <g id="Fiets" transform="translate(6.000000, 15.000000)" stroke="#333333" stroke-width="0.5">
                <path d="M15,1 L18,1" id="Line-4" stroke-linecap="square"></path>
                <path d="M16.5,1.5 L16,3" id="Line-3" stroke-linecap="square"></path>
                <polygon id="Triangle-2" transform="translate(10.750000, 7.000000) scale(-1, 1) rotate(-180.000000) translate(-10.750000, -7.000000) " points="12.1818182 3 16 11 5.5 11"></polygon>
                <path d="M4,11 L7,0" id="Line" stroke-linecap="square"></path>
                <path d="M7,0 L9,0" id="Line-2" stroke-linecap="square"></path>
                <polygon id="Triangle" points="16 3 20 11 12 11"></polygon>
                <circle id="Oval-3" cx="4" cy="11" r="4"></circle>
                <circle id="Oval-3" cx="20" cy="11" r="4"></circle>
            </g>
            <text id="OV" fill="#EC0000" font-family="AvenirNext-Regular, Avenir Next" font-size="4" font-weight="normal">
                <tspan x="5.542" y="18">OV</tspan>
            </text>
        </g>
    </g>
</svg>