<?xml version="1.0" encoding="UTF-8"?>
<svg width="50px" height="50px" viewBox="0 0 50 50" version="1.1" xmlns="http://www.w3.org/2000/svg" xmlns:xlink="http://www.w3.org/1999/xlink">
    <!-- Generator: Sketch 47.1 (45422) - http://www.bohemiancoding.com/sketch -->
    <title>icons/fiets_icon</title>
    <desc>Created with Sketch.</desc>
    <defs></defs>
    <g id="City-Dashboard" stroke="none" stroke-width="1" fill="none" fill-rule="evenodd">
        <g id="Desktop-(Out-of-date-versions)" transform="translate(-13747.000000, -2846.000000)"></g>
        <g id="icons/fiets_icon">
            <g id="fiets_icon" transform="translate(9.000000, 5.000000)">
                <g id="OV-fiets-Icon">
                    <g id="Fiets" transform="translate(0.000000, 17.748013)" stroke="#F9F9F9">
                        <path d="M18.4490644,4.28188166 L22.2661123,4.28188166" id="Line-4" stroke-linecap="square"></path>
                        <path d="M20.5330848,4.45665234 L20.3575884,6.1169738" id="Line-3" stroke-linecap="square"></path>
                        <path d="M7.89734031,6.43738671 L8.42382967,6.43738671" id="Line-5" stroke-linecap="square"></path>
                        <path d="M15.973487,6.13734191 L18.932285,12.6400991 L20.458727,15.6270823 L20.458727,15.6270823 C20.4838589,15.6762612 20.464365,15.7365021 20.4151861,15.7616341 C20.4010977,15.7688337 20.385502,15.7725877 20.3696806,15.7725877 L8.42382967,15.7725877 L15.8030157,6.11803125 L15.8030157,6.11803125 C15.8365536,6.07415194 15.8993126,6.06576858 15.9431919,6.09930648 C15.9562659,6.10929923 15.9666719,6.12236393 15.973487,6.13734191 Z" id="Triangle-2" transform="translate(14.433181, 10.944781) scale(1, -1) translate(-14.433181, -10.944781) "></path>
                        <path d="M5.08939709,15.9041319 L8.27027027,1.83509214" id="Line" stroke-linecap="square"></path>
                        <path d="M8.42382967,1.83509214 L12.0873181,1.83509214" id="Line-2" stroke-linecap="square"></path>
                        <path d="M20.4523053,6.29911909 L25.4469854,15.9041319 L17.1767152,15.9041319 L16.0597315,15.9041319 L16.0597315,15.9041319 C16.0045031,15.9041319 15.9597315,15.8593604 15.9597315,15.8041319 C15.9597315,15.7898439 15.9627933,15.7757218 15.9687107,15.7627168 L20.2725631,6.30383981 L20.2725631,6.30383981 C20.295436,6.2535704 20.3547296,6.23136115 20.404999,6.25423407 C20.4253402,6.26348945 20.4419949,6.27929175 20.4523053,6.29911909 Z" id="Triangle"></path>
                        <ellipse id="Oval-3" cx="5.08939709" cy="15.9041319" rx="5.08939709" ry="4.89357904"></ellipse>
                        <ellipse id="Oval-3" cx="25.4469854" cy="15.9041319" rx="5.08939709" ry="4.89357904"></ellipse>
                    </g>
                    <path d="M1.00352,8.13419355 C1.00352,6.96429523 1.19807805,5.9079617 1.5872,4.96516129 C1.97632195,4.02236088 2.51562322,3.22064846 3.20512,2.56 C3.89461678,1.89935154 4.71380859,1.39010932 5.66272,1.03225806 C6.61163141,0.674406813 7.64586107,0.495483871 8.76544,0.495483871 C9.89867233,0.495483871 10.9431419,0.674406813 11.89888,1.03225806 C12.8546181,1.39010932 13.6806365,1.89935154 14.37696,2.56 C15.0732835,3.22064846 15.6159981,4.02236088 16.00512,4.96516129 C16.3942419,5.9079617 16.5888,6.96429523 16.5888,8.13419355 C16.5888,9.27656485 16.3942419,10.3191351 16.00512,11.2619355 C15.6159981,12.2047359 15.0732835,13.0167708 14.37696,13.6980645 C13.6806365,14.3793582 12.8546181,14.9092454 11.89888,15.2877419 C10.9431419,15.6662385 9.89867233,15.8554839 8.76544,15.8554839 C7.64586107,15.8554839 6.61163141,15.6662385 5.66272,15.2877419 C4.71380859,14.9092454 3.89461678,14.3793582 3.20512,13.6980645 C2.51562322,13.0167708 1.97632195,12.2047359 1.5872,11.2619355 C1.19807805,10.3191351 1.00352,9.27656485 1.00352,8.13419355 Z M3.80928,8.13419355 C3.80928,8.9187136 3.92874547,9.63784619 4.16768,10.2916129 C4.40661453,10.9453796 4.74794445,11.5131159 5.19168,11.9948387 C5.63541555,12.4765615 6.16106363,12.8516116 6.76864,13.12 C7.37621637,13.3883884 8.04863631,13.5225806 8.78592,13.5225806 C9.52320369,13.5225806 10.1990369,13.3883884 10.81344,13.12 C11.4278431,12.8516116 11.9569044,12.4765615 12.40064,11.9948387 C12.8443756,11.5131159 13.1857055,10.9453796 13.42464,10.2916129 C13.6635745,9.63784619 13.78304,8.9187136 13.78304,8.13419355 C13.78304,7.37720052 13.6635745,6.67527205 13.42464,6.0283871 C13.1857055,5.38150214 12.8477889,4.81720671 12.41088,4.33548387 C11.9739711,3.85376103 11.4483231,3.47527019 10.83392,3.2 C10.2195169,2.92472981 9.53685709,2.78709677 8.78592,2.78709677 C8.03498291,2.78709677 7.35573637,2.92472981 6.74816,3.2 C6.14058363,3.47527019 5.61834885,3.85376103 5.18144,4.33548387 C4.74453115,4.81720671 4.40661453,5.38150214 4.16768,6.0283871 C3.92874547,6.67527205 3.80928,7.37720052 3.80928,8.13419355 Z M17.03936,0.867096774 L19.92704,0.867096774 L23.92064,12.1187097 L24.00256,12.1187097 L28.03712,0.867096774 L30.8224,0.867096774 L25.00608,15.483871 L22.77376,15.483871 L17.03936,0.867096774 Z" id="OV" fill="#F9F9F9"></path>
                </g>
            </g>
        </g>
    </g>
</svg>