<svg xmlns="http://www.w3.org/2000/svg" width="50" height="50" viewBox="0 0 50 50">
  <g fill="none" fill-rule="evenodd" transform="translate(7.986 7.986)">
    <g stroke="#4A4A4A" transform="translate(.473 11.104)">
      <path stroke-linecap="square" d="M19.6030083 4.54970289L23.6588032 4.54970289M21.8173791 4.73540505L21.6309057 6.49957556M8.39129964 6.84002952L8.95071962 6.84002952"/>
      <path d="M16.9682662,6.5117159 L20.1164532,13.4307064 L21.7430212,16.6136191 C21.7681532,16.662798 21.7486593,16.7230389 21.6994803,16.7481709 C21.6853919,16.7553705 21.6697963,16.7591246 21.6539749,16.7591246 L8.95071962,16.7591246 L16.7977949,6.49240524 C16.8313328,6.44852594 16.8940918,6.44014257 16.9379711,6.47368047 C16.9510451,6.48367322 16.9614511,6.49673793 16.9682662,6.5117159 Z" transform="matrix(1 0 0 -1 0 23.259)"/>
      <path stroke-linecap="square" d="M5.40772644 16.8988965L8.78755546 1.94987267M8.95071962 1.94987267L12.8433503 1.94987267"/>
      <path d="M21.7256227,6.68172085 L27.0386322,16.8988965 L18.2510767,16.8988965 L17.0545107,16.8988965 C16.9992823,16.8988965 16.9545107,16.8541249 16.9545107,16.7988965 C16.9545107,16.7846085 16.9575725,16.7704864 16.9634899,16.7574814 L21.5458805,6.68644157 C21.5687534,6.63617215 21.628047,6.61396291 21.6783164,6.63683583 C21.6986576,6.64609121 21.7153123,6.66189351 21.7256227,6.68172085 Z"/>
      <ellipse cx="5.408" cy="16.899" rx="5.408" ry="5.2"/>
      <ellipse cx="27.039" cy="16.899" rx="5.408" ry="5.2"/>
    </g>
    <path fill="#4A4A4A" d="M5.19868827,5.63907764 C5.19868827,4.8471588 5.35286861,4.1321134 5.6612339,3.49391998 C5.96959919,2.85572656 6.39697626,2.31303738 6.94337792,1.86583615 C7.48977958,1.41863493 8.13895994,1.07392249 8.89093846,0.831688487 C9.64291699,0.589454489 10.4625072,0.468339307 11.3497336,0.468339307 C12.2477799,0.468339307 13.0754849,0.589454489 13.8328733,0.831688487 C14.5902618,1.07392249 15.244852,1.41863493 15.7966636,1.86583615 C16.3484751,2.31303738 16.7785571,2.85572656 17.0869224,3.49391998 C17.3952877,4.1321134 17.549468,4.8471588 17.549468,5.63907764 C17.549468,6.4123631 17.3952877,7.11809195 17.0869224,7.75628537 C16.7785571,8.39447878 16.3484751,8.94415538 15.7966636,9.40533164 C15.244852,9.86650791 14.5902618,10.2251952 13.8328733,10.4814042 C13.0754849,10.7376133 12.2477799,10.8657159 11.3497336,10.8657159 C10.4625072,10.8657159 9.64291699,10.7376133 8.89093846,10.4814042 C8.13895994,10.2251952 7.48977958,9.86650791 6.94337792,9.40533164 C6.39697626,8.94415538 5.96959919,8.39447878 5.6612339,7.75628537 C5.35286861,7.11809195 5.19868827,6.4123631 5.19868827,5.63907764 Z M7.42215322,5.63907764 C7.42215322,6.1701291 7.51682536,6.65691897 7.70617247,7.09946185 C7.89551958,7.54200473 8.16601139,7.92631252 8.51765603,8.25239675 C8.86930066,8.57848097 9.28585806,8.83235703 9.76734071,9.01403253 C10.2488234,9.19570803 10.7816922,9.28654441 11.3659633,9.28654441 C11.9502344,9.28654441 12.4858082,9.19570803 12.9727008,9.01403253 C13.4595933,8.83235703 13.8788556,8.57848097 14.2305003,8.25239675 C14.5821449,7.92631252 14.8526367,7.54200473 15.0419838,7.09946185 C15.231331,6.65691897 15.3260031,6.1701291 15.3260031,5.63907764 C15.3260031,5.12665957 15.231331,4.65151539 15.0419838,4.21363086 C14.8526367,3.77574632 14.5848498,3.39376767 14.2386151,3.06768344 C13.8923804,2.74159921 13.475823,2.48539402 12.9889304,2.29906018 C12.5020379,2.11272633 11.9610542,2.01956081 11.3659633,2.01956081 C10.7708724,2.01956081 10.2325937,2.11272633 9.75111104,2.29906018 C9.26962838,2.48539402 8.85577591,2.74159921 8.50954119,3.06768344 C8.16330648,3.39376767 7.89551958,3.77574632 7.70617247,4.21363086 C7.51682536,4.65151539 7.42215322,5.12665957 7.42215322,5.63907764 Z M17.9065208,0.71988874 L20.1949044,0.71988874 L23.3596903,8.33624656 L23.424609,8.33624656 L26.6218542,0.71988874 L28.8290895,0.71988874 L24.2198629,10.6141664 L22.4508287,10.6141664 L17.9065208,0.71988874 Z"/>
  </g>
</svg>
