<?xml version="1.0" encoding="UTF-8"?>
<svg width="35px" height="57px" viewBox="0 0 35 57" version="1.1" xmlns="http://www.w3.org/2000/svg" xmlns:xlink="http://www.w3.org/1999/xlink">
<!-- Generator: Sketch 48.2 (47327) - http://www.bohemiancoding.com/sketch -->
<title>fiets_marker_plenty</title>
<desc>Created with Sketch.</desc>
<defs></defs>
<g id="Page-1" stroke="none" stroke-width="1" fill="none" fill-rule="evenodd">
    <g id="fiets_marker_plenty">
        <g id="Polygon" fill-rule="nonzero">
            <path d="M19.2888544,18.6060095 L21,22.0283008 L34.5690577,52.5586807 C34.8531888,53.1979757 35,53.8897813 35,54.589373 L35,57.0283008 L0,57.0283008 L0,54.589373 C7.01975208e-15,53.8897813 0.146811151,53.1979757 0.430942257,52.5586807 L14,22.0283008 L15.7111456,18.6060095 C16.2051241,17.6180525 17.4064702,17.2176039 18.3944272,17.7115823 C18.781482,17.9051098 19.095327,18.2189547 19.2888544,18.6060095 Z" id="Triangle-3" fill="#4A4A4A" transform="translate(17.500000, 37.264150) scale(-1, 1) rotate(-180.000000) translate(-17.500000, -37.264150) "></path>
            <circle id="Oval-8" fill="#4A4A4A" cx="17.5" cy="17.5" r="17.5"></circle>
            <circle id="Oval-9" fill="#DB322A" cx="17.5" cy="17.5" r="15.75"></circle>
            <circle id="Oval-9" fill="#FFFFFF" cx="17.5" cy="17.5" r="13"></circle>
        </g>
        <g id="Fiets" transform="translate(6.000000, 9.000000)" stroke="#4A4A4A" stroke-width="0.5">
            <path d="M15,1 L18,1" id="Line-4" stroke-linecap="square"></path>
            <path d="M16.5,1.5 L16,3" id="Line-3" stroke-linecap="square"></path>
            <polygon id="Triangle-2" transform="translate(10.750000, 7.000000) scale(-1, 1) rotate(-180.000000) translate(-10.750000, -7.000000) " points="12.1818182 3 16 11 5.5 11"></polygon>
            <path d="M4,11 L7,0" id="Line" stroke-linecap="square"></path>
            <path d="M7,0 L9,0" id="Line-2" stroke-linecap="square"></path>
            <polygon id="Triangle" points="16 3 20 11 12 11"></polygon>
            <circle id="Oval-3" cx="4" cy="11" r="4"></circle>
            <circle id="Oval-3" cx="20" cy="11" r="4"></circle>
        </g>
        <text id="OV" fill="#EC0000" font-family="AvenirNext-Regular, Avenir Next" font-size="4" font-weight="normal">
            <tspan x="5.542" y="12">OV</tspan>
        </text>
    </g>
</g>
</svg>