<?xml version="1.0" encoding="UTF-8"?>
<svg width="35px" height="50px" viewBox="0 0 35 50" version="1.1" xmlns="http://www.w3.org/2000/svg" xmlns:xlink="http://www.w3.org/1999/xlink">
    <!-- Generator: Sketch 47.1 (45422) - http://www.bohemiancoding.com/sketch -->
    <title>fiets_marker_plenty</title>
    <desc>Created with Sketch.</desc>
    <defs></defs>
    <g id="Symbols" stroke="none" stroke-width="1" fill="none" fill-rule="evenodd">
        <g id="fiets_marker_plenty">
            <g id="OV-Fiets-marker">
                <circle id="Oval" fill="#50E6DB" cx="17.5" cy="17.5" r="15.5"></circle>
                <g id="Marker-shape---template" fill="#4A4A4A">
                    <path d="M17.5,0 C7.825,0 0,7.825 0,17.5 C0,30.625 17.5,50 17.5,50 C17.5,50 35,30.625 35,17.5 C35,7.825 27.175,0 17.5,0 L17.5,0 Z M17.5,33 C8.944,33 2,26.056 2,17.5 C2,8.944 8.944,2 17.5,2 C26.056,2 33,8.944 33,17.5 C33,26.056 26.056,33 17.5,33 L17.5,33 Z" id="Marker-shape"></path>
                </g>
                <g id="Markers\fiets_template" transform="translate(7.000000, 5.000000)">
                    <g id="OV-fiets-Icon" transform="translate(0.500000, 0.500000)">
                        <g id="Fiets" transform="translate(1.600000, 10.830769)" stroke="#4A4A4A">
                            <path d="M9.95480769,2.61811043 L12.0144231,2.61811043" id="Line-4" stroke-linecap="square"></path>
                            <path d="M11.0793103,2.72497208 L10.9846154,3.74015776" id="Line-3" stroke-linecap="square"></path>
                            <path d="M4.26127321,3.93607078 L4.54535809,3.93607078" id="Line-5" stroke-linecap="square"></path>
                            <path d="M8.65199216,3.83470866 L10.2155455,7.72865245 L11.015673,9.50286853 L11.015673,9.50286853 C11.0383777,9.55321417 11.0159702,9.61243313 10.9656246,9.63513777 C10.9527026,9.64096525 10.9386894,9.64397892 10.9245142,9.64397892 L4.54535809,9.64397892 L8.47628956,3.81605172 L8.47628956,3.81605172 C8.50717264,3.77026503 8.56932575,3.75818327 8.61511244,3.78906635 C8.63169333,3.80025014 8.64453977,3.81614889 8.65199216,3.83470866 Z" id="Triangle-2" transform="translate(7.787904, 6.692068) scale(1, -1) translate(-7.787904, -6.692068) "></path>
                            <path d="M2.74615385,9.72441016 L4.4625,1.12204733" id="Line" stroke-linecap="square"></path>
                            <path d="M4.54535809,1.12204733 L6.52211538,1.12204733" id="Line-2" stroke-linecap="square"></path>
                            <path d="M11.0816289,3.95156374 L13.7307692,9.72441016 L9.26826923,9.72441016 L8.72964462,9.72441016 L8.72964462,9.72441016 C8.67441614,9.72441016 8.62964462,9.67963864 8.62964462,9.62441016 C8.62964462,9.61164374 8.63208914,9.5989954 8.63684614,9.58714836 L10.8979433,3.95600972 L10.8979433,3.95600972 C10.9185225,3.90475854 10.9767524,3.87989392 11.0280036,3.90047305 C11.0517592,3.91001173 11.0709521,3.92829748 11.0816289,3.95156374 Z" id="Triangle"></path>
                            <ellipse id="Oval-3" cx="2.74615385" cy="9.72441016" rx="2.74615385" ry="2.9921262"></ellipse>
                            <ellipse id="Oval-3" cx="13.7307692" cy="9.72441016" rx="2.74615385" ry="2.9921262"></ellipse>
                        </g>
                        <text id="OV" font-family="AvenirNext-DemiBold, Avenir Next" font-size="11" font-weight="500" fill="#4A4A4A">
                            <tspan x="1.805" y="11">OV</tspan>
                        </text>
                    </g>
                </g>
            </g>
        </g>
    </g>
</svg>