<?xml version="1.0" encoding="UTF-8"?>
<svg width="35px" height="57px" viewBox="0 0 35 57" version="1.1" xmlns="http://www.w3.org/2000/svg" xmlns:xlink="http://www.w3.org/1999/xlink">
    <!-- Generator: Sketch 43.2 (39069) - http://www.bohemiancoding.com/sketch -->
    <title>Group</title>
    <desc>Created with Sketch.</desc>
    <defs></defs>
    <g id="Page-1" stroke="none" stroke-width="1" fill="none" fill-rule="evenodd">
        <g id="Group" fill-rule="nonzero">
            <g id="Hotspot-poly">
                <g id="Polygon">
                    <path d="M19.2888544,18.6060101 L21,22.0283014 L34.5690577,52.5586813 L34.5690577,52.5586813 C34.8531888,53.1979763 35,53.8897819 35,54.5893736 L35,57.0283014 L0,57.0283014 L0,54.5893736 L7.10542736e-15,54.5893736 C7.01975208e-15,53.8897819 0.146811151,53.1979763 0.430942257,52.5586813 L14,22.0283014 L15.7111456,18.6060101 L15.7111456,18.6060101 C16.2051241,17.6180531 17.4064702,17.2176045 18.3944272,17.7115829 C18.781482,17.9051104 19.095327,18.2189553 19.2888544,18.6060101 Z" id="Triangle-3" fill="#4a4a4a" transform="translate(17.500000, 37.264150) scale(-1, 1) rotate(-180.000000) translate(-17.500000, -37.264150) "></path>
                    <circle id="Oval-8" fill="#4a4a4a" cx="17.5" cy="17.5" r="17.5"></circle>
                    <circle id="Oval-9" fill="#FFFFFF" cx="17.5" cy="17.5" r="15.75"></circle>
                </g>
            </g>
            <g id="google" transform="translate(8.000000, 8.000000)" fill="#4a4a4a">
                <path d="M18.8031748,7.71875 C18.9243689,8.3539381 18.9905461,9.01902857 18.9905461,9.71365952 C18.9905922,15.1406476 15.2867451,19 9.69387379,19 C4.34329854,19 0.00940776699,14.7486595 0.00940776699,9.5 C0.00940776699,4.25134048 4.34329854,0 9.69387379,0 C12.3088641,0 14.4935413,0.943983333 16.1704757,2.47588095 L13.4401942,5.15384048 L13.4401942,5.14773333 C12.4235097,4.19764286 11.1343689,3.71088095 9.69387379,3.71088095 C6.49813835,3.71088095 3.90145631,6.35898333 3.90145631,9.49416429 C3.90145631,12.6287119 6.49809223,15.2831929 9.69387379,15.2831929 C12.5932184,15.2831929 14.5662209,13.6562048 14.9723689,11.4238405 L9.69387379,11.4238405 L9.69387379,7.71875 L18.8031748,7.71875 Z" id="Shape"></path>
            </g>
        </g>
    </g>
</svg>