<svg xmlns="http://www.w3.org/2000/svg" width="100" height="100" viewBox="0 0 100 100">
  <g fill="#F9F9F9" fill-rule="evenodd" transform="translate(10 10)">
    <path d="M17.0543467,18.8308441 C17.050909,18.6817797 17.0491803,18.5322759 17.0491803,18.3823529 C17.0491803,8.23005975 24.9759421,0 34.7540984,0 C42.9864071,0 49.9064304,5.83354215 51.8886794,13.7364172 C53.5533336,12.4908195 55.553504,11.7647059 57.704918,11.7647059 C63.499381,11.7647059 68.1967213,17.0319441 68.1967213,23.5294118 C68.1967213,25.6722773 67.6858005,27.6813331 66.7931048,29.4117647 L69.7058824,29.4117647 C75.3911665,29.4117647 80,34.0205982 80,39.7058824 C80,45.3911665 75.3911665,50 69.7058824,50 L10.2941176,50 C4.60883346,50 6.96246508e-16,45.3911665 0,39.7058824 C-5.10308737e-16,35.5388953 2.47588782,31.9501828 6.03682184,30.3305865 C5.53017151,29.1646358 5.24590164,27.854837 5.24590164,26.4705882 C5.24590164,21.5974875 8.76890689,17.6470588 13.1147541,17.6470588 C14.5501481,17.6470588 15.8957765,18.0780194 17.0543467,18.8308441 Z M20.5518717,29.3604414 C20.5465781,29.3775732 20.5412388,29.394681 20.5358539,29.4117647 L20.5888673,29.4117647 C20.5765074,29.39468 20.5641755,29.3775722 20.5518717,29.3604414 Z"/>
    <g fill-opacity=".8" stroke="#F9F9F9" transform="translate(31 55)">
      <g transform="translate(0 4)">
        <rect width="3" height="14" x=".5" y=".5" rx="1.5"/>
        <circle cx="2" cy="19" r="2"/>
      </g>
      <g transform="translate(14)">
        <rect width="3" height="14" x=".5" y=".5" rx="1.5"/>
        <circle cx="2" cy="19" r="2"/>
      </g>
    </g>
  </g>
</svg>
