<svg xmlns="http://www.w3.org/2000/svg" xmlns:xlink="http://www.w3.org/1999/xlink" width="100" height="100" viewBox="0 0 100 100">
  <defs>
    <path id="halfbewolkt-a" d="M52,0 C53.3807119,-2.53632657e-16 54.5,1.11928813 54.5,2.5 L54.5,9.5 C54.5,10.8807119 53.3807119,12 52,12 C50.6192881,12 49.5,10.8807119 49.5,9.5 L49.5,2.5 C49.5,1.11928813 50.6192881,6.97721867e-16 52,4.4408921e-16 Z M75.2530483,8.76776695 C76.2293591,9.74407768 76.2293591,11.3269901 75.2530483,12.3033009 L70.3033009,17.2530483 C69.3269901,18.2293591 67.7440777,18.2293591 66.767767,17.2530483 C65.7914562,16.2767376 65.7914562,14.6938252 66.767767,13.7175144 L71.7175144,8.76776695 C72.6938252,7.79145622 74.2767376,7.79145622 75.2530483,8.76776695 Z M28.767767,8.76776695 C29.7440777,7.79145622 31.3269901,7.79145622 32.3033009,8.76776695 L37.2530483,13.7175144 C38.2293591,14.6938252 38.2293591,16.2767376 37.2530483,17.2530483 C36.2767376,18.2293591 34.6938252,18.2293591 33.7175144,17.2530483 L28.767767,12.3033009 C27.7914562,11.3269901 27.7914562,9.74407768 28.767767,8.76776695 Z M37.2530483,46.767767 C38.2293591,47.7440777 38.2293591,49.3269901 37.2530483,50.3033009 L32.3033009,55.2530483 C31.3269901,56.2293591 29.7440777,56.2293591 28.767767,55.2530483 C27.7914562,54.2767376 27.7914562,52.6938252 28.767767,51.7175144 L33.7175144,46.767767 C34.6938252,45.7914562 36.2767376,45.7914562 37.2530483,46.767767 Z M66.767767,46.767767 C67.7440777,45.7914562 69.3269901,45.7914562 70.3033009,46.767767 L75.2530483,51.7175144 C76.2293591,52.6938252 76.2293591,54.2767376 75.2530483,55.2530483 C74.2767376,56.2293591 72.6938252,56.2293591 71.7175144,55.2530483 L66.767767,50.3033009 C65.7914562,49.3269901 65.7914562,47.7440777 66.767767,46.767767 Z M32,32 C32,33.3807119 30.8807119,34.5 29.5,34.5 L22.5,34.5 C21.1192881,34.5 20,33.3807119 20,32 C20,30.6192881 21.1192881,29.5 22.5,29.5 L29.5,29.5 C30.8807119,29.5 32,30.6192881 32,32 Z M84,32 C84,33.3807119 82.8807119,34.5 81.5,34.5 L74.5,34.5 C73.1192881,34.5 72,33.3807119 72,32 C72,30.6192881 73.1192881,29.5 74.5,29.5 L81.5,29.5 C82.8807119,29.5 84,30.6192881 84,32 Z M52,52 C53.3807119,52 54.5,53.1192881 54.5,54.5 L54.5,61.5 C54.5,62.8807119 53.3807119,64 52,64 C50.6192881,64 49.5,62.8807119 49.5,61.5 L49.5,54.5 C49.5,53.1192881 50.6192881,52 52,52 Z M52,47 C43.7157288,47 37,40.2842712 37,32 C37,23.7157288 43.7157288,17 52,17 C60.2842712,17 67,23.7157288 67,32 C67,40.2842712 60.2842712,47 52,47 Z"/>
  </defs>
  <g fill="none" fill-rule="evenodd" transform="translate(10 15)">
    <use fill="#FFCC01" fill-opacity=".8" xlink:href="#halfbewolkt-a"/>
    <path stroke="#FFCC01" d="M52,0.5 C50.8954305,0.5 50,1.3954305 50,2.5 L50,9.5 C50,10.6045695 50.8954305,11.5 52,11.5 C53.1045695,11.5 54,10.6045695 54,9.5 L54,2.5 C54,1.3954305 53.1045695,0.5 52,0.5 Z M74.8994949,9.12132034 C74.1184464,8.34027176 72.8521164,8.34027176 72.0710678,9.12132034 L67.1213203,14.0710678 C66.3402718,14.8521164 66.3402718,16.1184464 67.1213203,16.8994949 C67.9023689,17.6805435 69.1686989,17.6805435 69.9497475,16.8994949 L74.8994949,11.9497475 C75.6805435,11.1686989 75.6805435,9.90236893 74.8994949,9.12132034 Z M29.1213203,9.12132034 C28.3402718,9.90236893 28.3402718,11.1686989 29.1213203,11.9497475 L34.0710678,16.8994949 C34.8521164,17.6805435 36.1184464,17.6805435 36.8994949,16.8994949 C37.6805435,16.1184464 37.6805435,14.8521164 36.8994949,14.0710678 L31.9497475,9.12132034 C31.1686989,8.34027176 29.9023689,8.34027176 29.1213203,9.12132034 Z M36.8994949,47.1213203 C36.1184464,46.3402718 34.8521164,46.3402718 34.0710678,47.1213203 L29.1213203,52.0710678 C28.3402718,52.8521164 28.3402718,54.1184464 29.1213203,54.8994949 C29.9023689,55.6805435 31.1686989,55.6805435 31.9497475,54.8994949 L36.8994949,49.9497475 C37.6805435,49.1686989 37.6805435,47.9023689 36.8994949,47.1213203 Z M67.1213203,47.1213203 C66.3402718,47.9023689 66.3402718,49.1686989 67.1213203,49.9497475 L72.0710678,54.8994949 C72.8521164,55.6805435 74.1184464,55.6805435 74.8994949,54.8994949 C75.6805435,54.1184464 75.6805435,52.8521164 74.8994949,52.0710678 L69.9497475,47.1213203 C69.1686989,46.3402718 67.9023689,46.3402718 67.1213203,47.1213203 Z M31.5,32 C31.5,30.8954305 30.6045695,30 29.5,30 L22.5,30 C21.3954305,30 20.5,30.8954305 20.5,32 C20.5,33.1045695 21.3954305,34 22.5,34 L29.5,34 C30.6045695,34 31.5,33.1045695 31.5,32 Z M83.5,32 C83.5,30.8954305 82.6045695,30 81.5,30 L74.5,30 C73.3954305,30 72.5,30.8954305 72.5,32 C72.5,33.1045695 73.3954305,34 74.5,34 L81.5,34 C82.6045695,34 83.5,33.1045695 83.5,32 Z M52,52.5 C50.8954305,52.5 50,53.3954305 50,54.5 L50,61.5 C50,62.6045695 50.8954305,63.5 52,63.5 C53.1045695,63.5 54,62.6045695 54,61.5 L54,54.5 C54,53.3954305 53.1045695,52.5 52,52.5 Z M52,46.5 C60.0081289,46.5 66.5,40.0081289 66.5,32 C66.5,23.9918711 60.0081289,17.5 52,17.5 C43.9918711,17.5 37.5,23.9918711 37.5,32 C37.5,40.0081289 43.9918711,46.5 52,46.5 Z"/>
    <g fill="#F9F9F9" stroke="#797979" stroke-width="2" transform="translate(0 20)">
      <path d="M17.0496122,18.512108 C17.0493244,18.4688916 17.0491803,18.4256397 17.0491803,18.3823529 C17.0491803,8.23005975 24.9759421,0 34.7540984,0 C42.9864071,0 49.9064304,5.83354215 51.8886794,13.7364172 C53.5533336,12.4908195 55.553504,11.7647059 57.704918,11.7647059 C63.499381,11.7647059 68.1967213,17.0319441 68.1967213,23.5294118 C68.1967213,25.6722773 67.6858005,27.6813331 66.7931048,29.4117647 L69.7058824,29.4117647 C75.3911665,29.4117647 80,34.0205982 80,39.7058824 C80,45.3911665 75.3911665,50 69.7058824,50 L10.2941176,50 C4.60883346,50 6.96246508e-16,45.3911665 -3.15544362e-30,39.7058824 C-5.1178869e-16,35.5268106 2.49026935,31.9293723 6.06783052,30.3165452 C5.54122383,29.1541241 5.24590164,27.849283 5.24590164,26.4705882 C5.24590164,21.5974875 8.9354276,17.6470588 13.4866885,17.6470588 C14.7628639,17.6470588 15.9712859,17.9576588 17.0496122,18.512108 Z"/>
    </g>
  </g>
</svg>
