<?xml version="1.0" encoding="UTF-8"?>
<svg width="35px" height="56px" viewBox="0 0 35 56" version="1.1" xmlns="http://www.w3.org/2000/svg" xmlns:xlink="http://www.w3.org/1999/xlink">
    <!-- Generator: Sketch 47.1 (45422) - http://www.bohemiancoding.com/sketch -->
    <title>Hotspot poly</title>
    <desc>Created with Sketch.</desc>
    <defs></defs>
    <g id="Symbols" stroke="none" stroke-width="1" fill="none" fill-rule="evenodd">
        <g id="Hotspot-poly">
            <g id="Hotspot-Icon">
                <g id="Polygon">
                    <path d="M19.2888544,16.7522375 L21,20.1745288 L34.5690577,50.7049087 L34.5690577,50.7049087 C34.8531888,51.3442037 35,52.0360093 35,52.735601 L35,55.1745288 L0,55.1745288 L0,52.735601 L7.10542736e-15,52.735601 C7.01975208e-15,52.0360093 0.146811151,51.3442037 0.430942257,50.7049087 L14,20.1745288 L15.7111456,16.7522375 L15.7111456,16.7522375 C16.2051241,15.7642805 17.4064702,15.3638319 18.3944272,15.8578103 C18.781482,16.0513378 19.095327,16.3651827 19.2888544,16.7522375 Z" id="Triangle-3" fill="#333333" transform="translate(17.500000, 36.337264) scale(1, -1) translate(-17.500000, -36.337264) "></path>
                    <circle id="Oval-8" fill="#333333" cx="17.5" cy="17.5" r="17.5"></circle>
                    <circle id="Oval-9" fill="#FFFFFF" cx="17.5" cy="17.5" r="15.75"></circle>
                </g>
                <g id="Camera" transform="translate(7.000000, 10.500000)">
                    <path d="M7.96781428,1.58155363e-13 L13.2056053,1.52469468e-13 L13.2056053,-2.01210994e-06 C14.3101759,-2.01210994e-06 15.2056073,0.895429389 15.2056073,2 C15.2056073,2.07600804 15.2012744,2.15195428 15.1926297,2.22746912 C15.0952983,3.07769383 14.6977551,3.79353746 14,4.375 C12.1394072,5.92549397 14.875,3.5 8.75,4.375 C4.99670402,4.91118514 4.20049437,3.72240325 6.36137105,0.808654342 L6.36135903,0.808645427 C6.73861127,0.29995453 7.33450103,1.58774571e-13 7.96781428,1.58095738e-13 Z" id="Rectangle-2" fill="#333333"></path>
                    <rect id="Rectangle" fill="#333333" x="0" y="1.75" width="21" height="12.25" rx="1"></rect>
                    <circle id="Oval" fill="#FFFFFF" cx="10.5" cy="7" r="3.5"></circle>
                    <circle id="Oval-2" fill="#333333" cx="10.5" cy="7" r="1.75"></circle>
                </g>
            </g>
        </g>
    </g>
</svg>