<?xml version="1.0" encoding="UTF-8"?>
<svg width="100px" height="76px" viewBox="0 0 100 76" version="1.1" xmlns="http://www.w3.org/2000/svg" xmlns:xlink="http://www.w3.org/1999/xlink">
    <!-- Generator: Sketch 43.2 (39069) - http://www.bohemiancoding.com/sketch -->
    <title>GASD_4_E_pms2035</title>
    <desc>Created with Sketch.</desc>
    <defs>
        <polygon id="path-1" points="0.0132743363 75.4292035 0.0132743363 0.17920354 99.9393805 0.17920354 99.9393805 75.4292035"></polygon>
    </defs>
    <g id="Page-1" stroke="none" stroke-width="1" fill="none" fill-rule="evenodd">
        <g id="GASD_4_E_pms2035">
            <path d="M38.4376106,21.1285398 L37.0628319,17.4962389 L35.6630531,21.1285398 L38.4376106,21.1285398 Z M36.4196903,15.6044248 L37.794469,15.6044248 L41.6411504,24.5338496 L39.825,24.5338496 L38.9926991,22.490708 L35.1207965,22.490708 L34.3134956,24.5338496 L32.535177,24.5338496 L36.4196903,15.6044248 L36.4196903,15.6044248 Z" id="Fill-1" fill="#DB322A"></path>
            <path d="M42.4345133,18.4800885 L43.8723451,18.4800885 L43.8723451,19.425885 L43.8975664,19.425885 C44.1623894,18.8584071 44.7424779,18.3287611 45.7515487,18.3287611 C46.6847345,18.3287611 47.3278761,18.694469 47.6433628,19.4511062 C48.0847345,18.6818584 48.7278761,18.3287611 49.6358407,18.3287611 C51.2502212,18.3287611 51.8179204,19.4763274 51.8179204,20.9267699 L51.8179204,24.5338496 L50.3044248,24.5338496 L50.3044248,21.1033186 C50.3044248,20.3466814 50.0774336,19.690708 49.1820796,19.690708 C48.2360619,19.690708 47.8829646,20.4727876 47.8829646,21.254646 L47.8829646,24.5338496 L46.369469,24.5338496 L46.369469,20.9267699 C46.369469,20.1827434 46.0668142,19.690708 45.3353982,19.690708 C44.3389381,19.690708 43.9480088,20.4223451 43.9480088,21.229646 L43.9480088,24.5338496 L42.4345133,24.5338496 L42.4345133,18.4800885" id="Fill-2" fill="#DB322A"></path>
            <path d="M56.6973451,20.1575221 C56.4073009,19.7539823 56.0287611,19.5393805 55.5117257,19.5393805 C55.1081858,19.5393805 54.6289823,19.7285398 54.6289823,20.1827434 C54.6289823,21.2672566 57.8955752,20.3845133 57.8955752,22.7429204 C57.8955752,24.1807522 56.5207965,24.685177 55.2847345,24.685177 C54.3515487,24.685177 53.544469,24.4455752 52.9263274,23.7519912 L53.9353982,22.8059735 C54.3263274,23.2347345 54.7298673,23.5502212 55.3730088,23.5502212 C55.8143805,23.5502212 56.3820796,23.3356195 56.3820796,22.8564159 C56.3820796,21.6077434 53.1154867,22.5915929 53.1154867,20.2836283 C53.1154867,18.9340708 54.3263274,18.3287611 55.5495575,18.3287611 C56.3568584,18.3287611 57.2143805,18.5809735 57.7064159,19.2493363 L56.6973451,20.1575221" id="Fill-3" fill="#DB322A"></path>
            <path d="M58.3612832,19.7663717 L58.3612832,18.4800885 L59.6099558,18.4800885 L59.6099558,16.7269912 L61.1232301,16.7269912 L61.1232301,18.4800885 L62.7880531,18.4800885 L62.7880531,19.7663717 L61.1232301,19.7663717 L61.1232301,22.4150442 C61.1232301,23.020354 61.3,23.3986726 61.9683628,23.3986726 C62.2331858,23.3986726 62.5988938,23.3484513 62.7880531,23.2095133 L62.7880531,24.4834071 C62.4727876,24.6347345 61.9431416,24.685177 61.5900442,24.685177 C59.9882743,24.685177 59.6099558,23.9663717 59.6099558,22.5411504 L59.6099558,19.7663717 L58.3612832,19.7663717" id="Fill-4" fill="#DB322A"></path>
            <path d="M68.2862832,20.9015487 C68.2738938,20.0188053 67.6935841,19.4637168 66.7477876,19.4637168 C65.8522124,19.4637168 65.2973451,20.0311947 65.1838496,20.9015487 L68.2862832,20.9015487 Z M65.1838496,22.0367257 C65.2847345,22.9320796 65.965708,23.4743363 66.8108407,23.4743363 C67.5674779,23.4743363 68.059292,23.1212389 68.4378319,22.654646 L69.5223451,23.4743363 C68.8161504,24.3446903 67.9205752,24.685177 66.9621681,24.685177 C65.1334071,24.685177 63.670354,23.4112832 63.670354,21.5068584 C63.670354,19.6026549 65.1334071,18.3287611 66.9621681,18.3287611 C68.6522124,18.3287611 69.7997788,19.5143805 69.7997788,21.6205752 L69.7997788,22.0367257 L65.1838496,22.0367257 L65.1838496,22.0367257 Z" id="Fill-5" fill="#DB322A"></path>
            <path d="M71.2112832,18.4800885 L72.7247788,18.4800885 L72.7247788,19.4384956 L72.75,19.4384956 C73.0780973,18.7449115 73.7464602,18.3287611 74.5409292,18.3287611 C74.7300885,18.3287611 74.9068584,18.3665929 75.0831858,18.4170354 L75.0831858,19.8798673 C74.8309735,19.8170354 74.5913717,19.7663717 74.3517699,19.7663717 C72.9265487,19.7663717 72.7247788,20.9646018 72.7247788,21.2924779 L72.7247788,24.5338496 L71.2112832,24.5338496 L71.2112832,18.4800885" id="Fill-6" fill="#DB322A"></path>
            <path d="M78.8915929,23.3230088 C80.0013274,23.3230088 80.6699115,22.4528761 80.6699115,21.5068584 C80.6699115,20.5610619 80.0013274,19.690708 78.8915929,19.690708 C77.7816372,19.690708 77.1132743,20.5610619 77.1132743,21.5068584 C77.1132743,22.4528761 77.7816372,23.3230088 78.8915929,23.3230088 Z M80.6951327,23.625885 L80.6699115,23.625885 C80.2283186,24.3573009 79.4338496,24.685177 78.5889381,24.685177 C76.7223451,24.685177 75.5997788,23.2977876 75.5997788,21.5068584 C75.5997788,19.7161504 76.7977876,18.3287611 78.525885,18.3287611 C79.6608407,18.3287611 80.2663717,18.8584071 80.5816372,19.2493363 L80.6192478,19.2493363 L80.6192478,14.999115 L82.1327434,14.999115 L82.1327434,24.5338496 L80.6951327,24.5338496 L80.6951327,23.625885 L80.6951327,23.625885 Z" id="Fill-7" fill="#DB322A"></path>
            <path d="M87.5422566,21.8223451 L87.2272124,21.8223451 C86.3946903,21.8223451 84.9568584,21.885177 84.9568584,22.755531 C84.9568584,23.3103982 85.5243363,23.5502212 86.0163717,23.5502212 C87.0504425,23.5502212 87.5422566,23.0077434 87.5422566,22.1628319 L87.5422566,21.8223451 Z M87.6307522,23.7013274 L87.5926991,23.7013274 C87.1639381,24.3825221 86.4577434,24.685177 85.6506637,24.685177 C84.5278761,24.685177 83.4433628,24.0672566 83.4433628,22.8690265 C83.4433628,20.9015487 85.7387168,20.7628319 87.2522124,20.7628319 L87.6307522,20.7628319 L87.6307522,20.5988938 C87.6307522,19.8548673 87.0504425,19.4637168 86.2431416,19.4637168 C85.6128319,19.4637168 85.0325221,19.7161504 84.6287611,20.094469 L83.834292,19.2997788 C84.5026549,18.6188053 85.4488938,18.3287611 86.4073009,18.3287611 C88.9926991,18.3287611 88.9926991,20.195354 88.9926991,21.0528761 L88.9926991,24.5338496 L87.6307522,24.5338496 L87.6307522,23.7013274 L87.6307522,23.7013274 Z" id="Fill-8" fill="#DB322A"></path>
            <g id="Group-14">
                <mask id="mask-2" fill="white">
                    <use xlink:href="#path-1"></use>
                </mask>
                <g id="Clip-10"></g>
                <path d="M90.5559735,18.4800885 L91.9935841,18.4800885 L91.9935841,19.425885 L92.0188053,19.425885 C92.2836283,18.8584071 92.8637168,18.3287611 93.8727876,18.3287611 C94.8059735,18.3287611 95.4493363,18.694469 95.7646018,19.4511062 C96.2061947,18.6818584 96.8493363,18.3287611 97.7573009,18.3287611 C99.3716814,18.3287611 99.9393805,19.4763274 99.9393805,20.9267699 L99.9393805,24.5338496 L98.425885,24.5338496 L98.425885,21.1033186 C98.425885,20.3466814 98.1986726,19.690708 97.3033186,19.690708 C96.3573009,19.690708 96.0042035,20.4727876 96.0042035,21.254646 L96.0042035,24.5338496 L94.4909292,24.5338496 L94.4909292,20.9267699 C94.4909292,20.1827434 94.1880531,19.690708 93.4566372,19.690708 C92.460177,19.690708 92.0692478,20.4223451 92.0692478,21.229646 L92.0692478,24.5338496 L90.5559735,24.5338496 L90.5559735,18.4800885" id="Fill-9" fill="#DB322A" mask="url(#mask-2)"></path>
                <polyline id="Fill-11" fill="#DB322A" mask="url(#mask-2)" points="0 71.0176991 6.63650442 64.3809735 0 57.7435841 4.42477876 53.3188053 11.0619469 59.9559735 17.699115 53.3188053 22.1238938 57.7435841 15.4867257 64.3809735 22.1238938 71.0176991 17.699115 75.4424779 11.0619469 68.8057522 4.42477876 75.4424779 0 71.0176991"></polyline>
                <polyline id="Fill-12" fill="#DB322A" mask="url(#mask-2)" points="0.000663716814 17.8785398 6.63783186 11.2411504 0.000663716814 4.60353982 4.42477876 0.17920354 11.0626106 6.81637168 17.6997788 0.17920354 22.1245575 4.60353982 15.4867257 11.2411504 22.1245575 17.8785398 17.6997788 22.3030973 11.0626106 15.665708 4.42610619 22.3030973 0.000663716814 17.8785398"></polyline>
                <polyline id="Fill-13" fill="#DB322A" mask="url(#mask-2)" points="0.000663716814 44.4710177 6.63783186 37.8340708 0.000663716814 31.1966814 4.42566372 26.7716814 11.0626106 33.4090708 17.6997788 26.7716814 22.1245575 31.1966814 15.4876106 37.8340708 22.1245575 44.4710177 17.6997788 48.8957965 11.0626106 42.2588496 4.42566372 48.8957965 0.000663716814 44.4710177"></polyline>
            </g>
            <path d="M39.6561947,4.39380531 C39.0004425,3.70022124 38.3949115,3.51106195 37.7769912,3.51106195 C35.9356195,3.51106195 34.7121681,4.92367257 34.7121681,6.70176991 C34.7121681,8.60619469 35.9356195,10.0188053 37.7769912,10.0188053 C38.4957965,10.0188053 39.1896018,9.6909292 39.7823009,8.93429204 L41.0940265,9.86747788 C40.2867257,10.9774336 39.0761062,11.4566372 37.7643805,11.4566372 C35.0150442,11.4566372 33.0475664,9.59004425 33.0475664,6.80265487 C33.0475664,3.93982301 35.0150442,2.07323009 37.7643805,2.07323009 C38.975,2.07323009 40.009292,2.46415929 40.8922566,3.48584071 L39.6561947,4.39380531" id="Fill-15" fill="#DB322A"></path>
            <path d="M42.0261062,11.229646 L43.5396018,11.229646 L43.5396018,5.17588496 L42.0261062,5.17588496 L42.0261062,11.229646 Z M42.770354,2.2119469 C43.3252212,2.2119469 43.7539823,2.60287611 43.7539823,3.12013274 C43.7539823,3.6369469 43.3252212,4.02809735 42.770354,4.02809735 C42.2152655,4.02809735 41.8117257,3.59911504 41.8117257,3.12013274 C41.8117257,2.6409292 42.2152655,2.2119469 42.770354,2.2119469 L42.770354,2.2119469 Z" id="Fill-16" fill="#DB322A"></path>
            <path d="M44.5482301,6.46216814 L44.5482301,5.17588496 L45.7966814,5.17588496 L45.7966814,3.42278761 L47.310177,3.42278761 L47.310177,5.17588496 L48.975,5.17588496 L48.975,6.46216814 L47.310177,6.46216814 L47.310177,9.11084071 C47.310177,9.71615044 47.4869469,10.094469 48.1553097,10.094469 C48.4201327,10.094469 48.7858407,10.0440265 48.975,9.90530973 L48.975,11.1792035 C48.6597345,11.330531 48.1300885,11.3809735 47.7769912,11.3809735 C46.1752212,11.3809735 45.7966814,10.6619469 45.7966814,9.2369469 L45.7966814,6.46216814 L44.5482301,6.46216814" id="Fill-17" fill="#DB322A"></path>
            <path d="M49.6300885,5.17588496 L51.2949115,5.17588496 L52.9849558,9.37566372 L53.010177,9.37566372 L54.5236726,5.17588496 L56.1002212,5.17588496 L53.2371681,12.5287611 C52.7957965,13.6637168 52.2661504,14.2564159 50.9292035,14.2564159 C50.5382743,14.2564159 50.1473451,14.2061947 49.7688053,14.1050885 L49.9581858,12.7431416 C50.1977876,12.8314159 50.4626106,12.8942478 50.7274336,12.8942478 C51.4714602,12.8942478 51.6732301,12.629646 51.9256637,11.9988938 L52.215708,11.2798673 L49.6300885,5.17588496" id="Fill-18" fill="#DB322A"></path>
            <path d="M61.8376106,10.0188053 C62.9473451,10.0188053 63.6159292,9.14867257 63.6159292,8.20265487 C63.6159292,7.25685841 62.9473451,6.38650442 61.8376106,6.38650442 C60.7276549,6.38650442 60.059292,7.25685841 60.059292,8.20265487 C60.059292,9.14867257 60.7276549,10.0188053 61.8376106,10.0188053 Z M61.8376106,5.02433628 C63.6661504,5.02433628 65.1294248,6.29823009 65.1294248,8.20265487 C65.1294248,10.1073009 63.6661504,11.3809735 61.8376106,11.3809735 C60.0088496,11.3809735 58.5457965,10.1073009 58.5457965,8.20265487 C58.5457965,6.29823009 60.0088496,5.02433628 61.8376106,5.02433628 L61.8376106,5.02433628 Z" id="Fill-19" fill="#DB322A"></path>
            <path d="M66.9316372,6.46216814 L65.6831858,6.46216814 L65.6831858,5.17588496 L66.9316372,5.17588496 L66.9316372,4.31814159 C66.9316372,2.6409292 67.310177,1.54358407 69.1891593,1.54358407 C69.5172566,1.54358407 69.8325221,1.56880531 70.1477876,1.63185841 L70.0469027,2.91814159 C69.8325221,2.86769912 69.6307522,2.82986726 69.4163717,2.82986726 C68.5712389,2.82986726 68.4451327,3.40995575 68.4451327,4.07853982 L68.4451327,5.17588496 L69.8451327,5.17588496 L69.8451327,6.46216814 L68.4451327,6.46216814 L68.4451327,11.229646 L66.9316372,11.229646 L66.9316372,6.46216814" id="Fill-20" fill="#DB322A"></path>
        </g>
    </g>
</svg>