<svg xmlns="http://www.w3.org/2000/svg" xmlns:xlink="http://www.w3.org/1999/xlink" width="100" height="100" viewBox="0 0 100 100">
  <defs>
    <rect id="mist-a" width="25" height="5" x="22" rx="2.5"/>
    <rect id="mist-b" width="30" height="5" x="18" y="40" rx="2.5"/>
    <rect id="mist-c" width="35" height="5" x="5" y="10" rx="2.5"/>
    <rect id="mist-d" width="15" height="5" x="5" y="30" rx="2.5"/>
    <rect id="mist-e" width="15" height="5" x="55" y="30" rx="2.5"/>
    <rect id="mist-f" width="25" height="5" x="44" y="10" rx="2.5"/>
    <rect id="mist-g" width="25" height="5" y="20" rx="2.5"/>
    <rect id="mist-h" width="25" height="5" x="25" y="30" rx="2.5"/>
    <rect id="mist-i" width="45" height="5" x="30" y="20" rx="2.5"/>
  </defs>
  <g fill="none" fill-rule="evenodd" transform="translate(12.5 27.5)">
    <use fill="#F9F9F9" xlink:href="#mist-a"/>
    <rect width="24.5" height="4.5" x="22.25" y=".25" stroke="#F9F9F9" stroke-width=".5" rx="2.25"/>
    <use fill="#F9F9F9" fill-opacity=".5" xlink:href="#mist-b"/>
    <rect width="29.5" height="4.5" x="18.25" y="40.25" stroke="#F9F9F9" stroke-width=".5" rx="2.25"/>
    <use fill="#F9F9F9" fill-opacity=".85" xlink:href="#mist-c"/>
    <rect width="34.5" height="4.5" x="5.25" y="10.25" stroke="#F9F9F9" stroke-width=".5" rx="2.25"/>
    <use fill="#F9F9F9" fill-opacity=".6" xlink:href="#mist-d"/>
    <rect width="14.5" height="4.5" x="5.25" y="30.25" stroke="#F9F9F9" stroke-width=".5" rx="2.25"/>
    <use fill="#F9F9F9" fill-opacity=".6" xlink:href="#mist-e"/>
    <rect width="14.5" height="4.5" x="55.25" y="30.25" stroke="#F9F9F9" stroke-width=".5" rx="2.25"/>
    <g>
      <use fill="#F9F9F9" fill-opacity=".85" xlink:href="#mist-f"/>
      <rect width="24.5" height="4.5" x="44.25" y="10.25" stroke="#F9F9F9" stroke-width=".5" rx="2.25"/>
    </g>
    <g>
      <use fill="#F9F9F9" fill-opacity=".75" xlink:href="#mist-g"/>
      <rect width="24.5" height="4.5" x=".25" y="20.25" stroke="#F9F9F9" stroke-width=".5" rx="2.25"/>
    </g>
    <g>
      <use fill="#F9F9F9" fill-opacity=".6" xlink:href="#mist-h"/>
      <rect width="24.5" height="4.5" x="25.25" y="30.25" stroke="#F9F9F9" stroke-width=".5" rx="2.25"/>
    </g>
    <g>
      <use fill="#F9F9F9" fill-opacity=".75" xlink:href="#mist-i"/>
      <rect width="44.5" height="4.5" x="30.25" y="20.25" stroke="#F9F9F9" stroke-width=".5" rx="2.25"/>
    </g>
  </g>
</svg>
