<?xml version="1.0" encoding="UTF-8"?>
<svg width="35px" height="40px" viewBox="0 0 35 40" version="1.1" xmlns="http://www.w3.org/2000/svg" xmlns:xlink="http://www.w3.org/1999/xlink">
    <!-- Generator: Sketch 47.1 (45422) - http://www.bohemiancoding.com/sketch -->
    <title>Park Icon</title>
    <desc>Created with Sketch.</desc>
    <defs></defs>
    <g id="Symbols" stroke="none" stroke-width="1" fill="none" fill-rule="evenodd">
        <g id="Park-Icon">
            <g transform="translate(6.000000, 7.000000)">
                <g id="Park">
                    <g id="Tree">
                        <ellipse id="Oval-10" fill="#666666" cx="2" cy="9.89130435" rx="2" ry="1.97826087"></ellipse>
                        <ellipse id="Oval-11" fill="#666666" cx="3" cy="6.92391304" rx="3" ry="2.9673913"></ellipse>
                        <ellipse id="Oval-11" fill="#666666" cx="11" cy="6.92391304" rx="3" ry="2.9673913"></ellipse>
                        <ellipse id="Oval-11" fill="#666666" cx="13" cy="10.8804348" rx="3" ry="2.9673913"></ellipse>
                        <ellipse id="Oval-11" fill="#666666" cx="10" cy="9.89130435" rx="2" ry="1.97826087"></ellipse>
                        <ellipse id="Oval-11" fill="#666666" cx="7" cy="8.90217391" rx="3" ry="2.9673913"></ellipse>
                        <ellipse id="Oval-12" fill="#666666" cx="8" cy="3.95652174" rx="4" ry="3.95652174"></ellipse>
                        <path d="M1,22.75 L23,22.75" id="Line-24" stroke="#666666" stroke-linecap="square"></path>
                        <path d="M7,22.75 L7,10.8804348" id="Line-25" stroke="#666666" stroke-linecap="square"></path>
                        <path d="M9,10.8804348 L9,22.1847826" id="Line-26" stroke="#666666" stroke-linecap="square"></path>
                        <path d="M9,16.8152174 L13,12.8586957" id="Line-27" stroke="#666666" stroke-width="0.5" stroke-linecap="square"></path>
                        <path d="M7,14.8369565 L3,10.8804348" id="Line-28" stroke="#666666" stroke-width="0.5" stroke-linecap="square"></path>
                    </g>
                </g>
                <g id="Bench" transform="translate(15.000000, 14.000000)" stroke="#666666" stroke-linecap="square">
                    <path d="M5.85714286,0.984375 L5.85714286,7.875" id="Line-29"></path>
                    <path d="M5.85714286,4.921875 L1.85714286,4.921875" id="Line-30"></path>
                    <polygon id="Line-31" points="2 4.5 1.42857143 8.4375 1.42857143 7.875"></polygon>
                </g>
            </g>
        </g>
    </g>
</svg>