<?xml version="1.0" encoding="UTF-8"?>
<svg width="50px" height="50px" viewBox="0 0 50 50" version="1.1" xmlns="http://www.w3.org/2000/svg" xmlns:xlink="http://www.w3.org/1999/xlink">
    <!-- Generator: Sketch 47.1 (45422) - http://www.bohemiancoding.com/sketch -->
    <title>icons/park_icon</title>
    <desc>Created with Sketch.</desc>
    <defs></defs>
    <g id="City-Dashboard" stroke="none" stroke-width="1" fill="none" fill-rule="evenodd">
        <g id="Desktop-(Out-of-date-versions)" transform="translate(-13671.000000, -2846.000000)"></g>
        <g id="icons/park_icon">
            <g id="Parking-Icon" transform="translate(6.000000, 6.000000)">
                <g id="Parking-box" stroke="#F9F9F9" stroke-linecap="square">
                    <path d="M0.974358974,0.827586207 L0.974358974,37.3448276 L0.974358974,38 L1.56319402e-13,38 L1.56319402e-13,37.3448276 L1.56319402e-13,0.655172414 L1.56319402e-13,-1.0658141e-14 L0.974358974,-1.0658141e-14 L0.974358974,0.327586207 L0.974358974,1.77635684e-14 L1.63553114,1.77635684e-14 L37.3388278,1.77635684e-14 L37.6694139,1.77635684e-14 L38,1.77635684e-14 L38,0.655172414 L38,37.3448276 L38,38 L37.025641,38 L37.025641,37.3448276 L37.025641,1 L1.63553114,1 L0.974358974,1 L0.974358974,0.827586207 Z M2.63076923,38 L1.94871795,38 L1.94871795,37 L2.63076923,37 L8.08717949,37 L8.76923077,37 L8.76923077,38 L8.08717949,38 L2.63076923,38 Z M30.8871795,38 L30.2051282,38 L30.2051282,37 L30.8871795,37 L36.3435897,37 L37.025641,37 L37.025641,38 L36.3435897,38 L30.8871795,38 Z M37.6694139,1.77635684e-14 L37.025641,1.77635684e-14 L37.025641,0.655172414 L37.025641,1 L37.3388278,1 L38,1 L38,1.77635684e-14 L37.6694139,1.77635684e-14 Z M0.974358974,0.827586207 L0.974358974,0.327586207 L0.974358974,0.655172414 L0.974358974,0.827586207 Z" id="Combined-Shape"></path>
                </g>
                <path d="M12.3523573,9.125 L19.6129032,9.125 C20.891101,9.125 22.043557,9.23958219 23.070306,9.46875 C24.097055,9.69791781 24.9771124,10.0729141 25.7105045,10.59375 C26.4438967,11.1145859 27.0096479,11.7812459 27.407775,12.59375 C27.8059022,13.4062541 28.0049628,14.3854109 28.0049628,15.53125 C28.0049628,16.7604228 27.7744716,17.7916625 27.3134822,18.625 C26.8524929,19.4583375 26.2291189,20.1302058 25.4433416,20.640625 C24.6575643,21.1510442 23.7408379,21.5208322 22.6931348,21.75 C21.6454318,21.9791678 20.5348832,22.09375 19.3614557,22.09375 L16.3126551,22.09375 L16.3126551,31.25 L12.3523573,31.25 L12.3523573,9.125 Z M19.0785773,18.78125 C19.7281532,18.78125 20.3462888,18.7343755 20.9330025,18.640625 C21.5197162,18.5468745 22.0435599,18.3802095 22.5045492,18.140625 C22.9655386,17.9010405 23.3322291,17.5729187 23.6046319,17.15625 C23.8770347,16.7395812 24.0132341,16.19792 24.0132341,15.53125 C24.0132341,14.8854134 23.8770347,14.359377 23.6046319,13.953125 C23.3322291,13.546873 22.970777,13.2291678 22.5202647,13 C22.0697524,12.7708322 21.5563856,12.619792 20.9801489,12.546875 C20.4039122,12.473958 19.8119689,12.4375 19.2043011,12.4375 L16.3126551,12.4375 L16.3126551,18.78125 L19.0785773,18.78125 Z" id="P" fill="#F9F9F9"></path>
            </g>
        </g>
    </g>
</svg>