<?xml version="1.0" encoding="UTF-8"?>
<svg width="40px" height="40px" viewBox="0 0 40 40" version="1.1" xmlns="http://www.w3.org/2000/svg" xmlns:xlink="http://www.w3.org/1999/xlink">
    <!-- Generator: Sketch 47.1 (45422) - http://www.bohemiancoding.com/sketch -->
    <title>Icon Park &amp; Ride - desktop</title>
    <desc>Created with Sketch.</desc>
    <defs></defs>
    <g id="Symbols" stroke="none" stroke-width="1" fill="none" fill-rule="evenodd">
        <g id="Icon-Park-&amp;-Ride---desktop">
            <rect id="Rectangle-36" fill="#4A4A4A" x="0" y="0" width="40" height="40"></rect>
            <g id="Park-&amp;-Ride-icon" transform="translate(3.000000, 5.000000)">
                <g id="Car" transform="translate(5.230769, 9.076923)">
                    <rect id="Body" stroke="#F9F9F9" x="1.26923077" y="9.42307692" width="24" height="9" rx="1"></rect>
                    <path d="M2.93521393,9.42307692 L23.8340168,9.42307692 L21.8234889,2.50449538 C21.6372999,1.86378637 21.0502898,1.42307692 20.3830759,1.42307692 L6.38615486,1.42307692 C5.71894098,1.42307692 5.13193084,1.86378637 4.9457419,2.50449538 L2.93521393,9.42307692 Z" id="Roof" stroke="#F9F9F9"></path>
                    <g id="Headlights" transform="translate(4.923077, 11.461538)" fill="#F9F9F9">
                        <circle id="Oval" cx="1.96153846" cy="2.61538462" r="1.96153846"></circle>
                        <circle id="Oval" cx="15.0384615" cy="2.61538462" r="1.96153846"></circle>
                    </g>
                    <g id="Wheels" transform="translate(3.615385, 18.000000)" fill="#F9F9F9">
                        <path d="M1.15384615,0.423076923 L1.15384615,0.423076923 L1.65384615,0.423076923 L1.65384615,0.423076923 L1.65384615,0.423076923 C2.00036236,0.270609791 2.40486828,0.427917649 2.55733542,0.774433858 C2.59561631,0.861435901 2.61538462,0.955448548 2.61538462,1.05050002 L2.61538462,2.61538462 L2.61538462,2.61538462 C2.61538462,3.33760313 2.02991083,3.92307692 1.30769231,3.92307692 L1.30769231,3.92307692 L1.30769231,3.92307692 C0.585473789,3.92307692 5.3253547e-16,3.33760313 4.4408921e-16,2.61538462 L-1.11022302e-16,1.22896502 L0,1.22896502 C-5.80550846e-17,0.754909282 0.384298109,0.370611173 0.85835385,0.370611173 C0.959168063,0.370611173 1.05919408,0.388371162 1.15384615,0.423076923 Z" id="Rectangle"></path>
                        <path d="M18.3076923,0.423076923 L18.3076923,0.423076923 L18.3076923,0.423076923 L18.3076923,0.423076923 C18.8331092,0.25308911 19.3968461,0.541221296 19.5668339,1.06663817 C19.5990022,1.16606741 19.6153846,1.26992489 19.6153846,1.37442834 L19.6153846,2.61538462 L19.6153846,2.61538462 C19.6153846,3.33760313 19.0299108,3.92307692 18.3076923,3.92307692 L18.3076923,3.92307692 L18.3076923,3.92307692 C17.5854738,3.92307692 17,3.33760313 17,2.61538462 L17,1.37442834 L17,1.37442834 C17,0.822197632 17.4476714,0.374526193 17.9999021,0.374526193 C18.1044056,0.374526193 18.2082631,0.390908642 18.3076923,0.423076923 Z" id="Rectangle"></path>
                    </g>
                </g>
                <text id="P&amp;R" font-family="AvenirNext-DemiBold, Avenir Next" font-size="10" font-weight="500" fill="#F9F9F9">
                    <tspan x="1.21538462" y="10">P&amp;R</tspan>
                </text>
            </g>
        </g>
    </g>
</svg>