<?xml version="1.0" encoding="UTF-8"?>
<svg width="50px" height="50px" viewBox="0 0 50 50" version="1.1" xmlns="http://www.w3.org/2000/svg" xmlns:xlink="http://www.w3.org/1999/xlink">
    <!-- Generator: Sketch 47.1 (45422) - http://www.bohemiancoding.com/sketch -->
    <title>icons/park_icon</title>
    <desc>Created with Sketch.</desc>
    <defs></defs>
    <g id="City-Dashboard" stroke="none" stroke-width="1" fill="none" fill-rule="evenodd">
        <g id="Desktop-(Out-of-date-versions)" transform="translate(-12674.000000, -2459.000000)"></g>
        <g id="icons/park_icon">
            <g id="Parking-Icon" transform="translate(7.500000, 7.500000)">
                <g id="Parking-box" stroke="#F9F9F9" stroke-linecap="square">
                    <path d="M0.897435897,0.762250454 L0.897435897,34.3965517 L0.897435897,35 L1.56319402e-13,35 L1.56319402e-13,34.3965517 L1.56319402e-13,0.603448276 L1.56319402e-13,-1.0658141e-14 L0.897435897,-1.0658141e-14 L0.897435897,0.301724138 L0.897435897,1.77635684e-14 L1.50641026,1.77635684e-14 L34.3910256,1.77635684e-14 L34.6955128,1.77635684e-14 L35,1.77635684e-14 L35,0.603448276 L35,34.3965517 L35,35 L34.1025641,35 L34.1025641,34.3965517 L34.1025641,0.921052632 L1.50641026,0.921052632 L0.897435897,0.921052632 L0.897435897,0.762250454 Z M2.42307692,35 L1.79487179,35 L1.79487179,34.0789474 L2.42307692,34.0789474 L7.44871795,34.0789474 L8.07692308,34.0789474 L8.07692308,35 L7.44871795,35 L2.42307692,35 Z M28.4487179,35 L27.8205128,35 L27.8205128,34.0789474 L28.4487179,34.0789474 L33.474359,34.0789474 L34.1025641,34.0789474 L34.1025641,35 L33.474359,35 L28.4487179,35 Z M34.6955128,1.77635684e-14 L34.1025641,1.77635684e-14 L34.1025641,0.603448276 L34.1025641,0.921052632 L34.3910256,0.921052632 L35,0.921052632 L35,1.77635684e-14 L34.6955128,1.77635684e-14 Z M0.897435897,0.762250454 L0.897435897,0.301724138 L0.897435897,0.603448276 L0.897435897,0.762250454 Z" id="Combined-Shape"></path>
                </g>
                <path d="M11.3771712,8.40460526 L18.0645161,8.40460526 C19.2418035,8.40460526 20.3032762,8.51014149 21.2489661,8.72121711 C22.194656,8.93229272 23.0052351,9.277684 23.6807279,9.75740132 C24.3562206,10.2371186 24.8773072,10.8511476 25.2440033,11.5995066 C25.6106994,12.3478656 25.7940447,13.2497206 25.7940447,14.3050987 C25.7940447,15.4372315 25.5817501,16.3870576 25.1571547,17.1546053 C24.7325592,17.922153 24.158399,18.540979 23.4346567,19.011102 C22.7109145,19.4812249 21.8665612,19.8218191 20.9015715,20.0328947 C19.9365819,20.2439704 18.9137082,20.3495066 17.8329198,20.3495066 L15.0248139,20.3495066 L15.0248139,28.7828947 L11.3771712,28.7828947 L11.3771712,8.40460526 Z M17.5723739,17.2985197 C18.1706675,17.2985197 18.7400028,17.2553458 19.280397,17.1689967 C19.8207912,17.0826476 20.3032788,16.9291404 20.7278743,16.7084704 C21.1524697,16.4878004 21.490211,16.1855831 21.7411084,15.8018092 C21.9920057,15.4180354 22.1174524,14.9191368 22.1174524,14.3050987 C22.1174524,13.7102492 21.9920057,13.225742 21.7411084,12.8515625 C21.490211,12.477383 21.1572946,12.1847598 20.742349,11.9736842 C20.3274035,11.7626086 19.8545657,11.6234927 19.3238213,11.5563322 C18.793077,11.4891718 18.247866,11.4555921 17.688172,11.4555921 L15.0248139,11.4555921 L15.0248139,17.2985197 L17.5723739,17.2985197 Z" id="P" fill="#F9F9F9"></path>
            </g>
        </g>
    </g>
</svg>