<?xml version="1.0" encoding="UTF-8"?>
<svg width="35px" height="50px" viewBox="0 0 35 50" version="1.1" xmlns="http://www.w3.org/2000/svg" xmlns:xlink="http://www.w3.org/1999/xlink">
    <!-- Generator: Sketch 47.1 (45422) - http://www.bohemiancoding.com/sketch -->
    <title>parkride_marker_plenty</title>
    <desc>Created with Sketch.</desc>
    <defs></defs>
    <g id="Symbols" stroke="none" stroke-width="1" fill="none" fill-rule="evenodd">
        <g id="parkride_marker_plenty">
            <circle id="Oval" fill="#50E6DB" cx="17.5" cy="17.5" r="15.5"></circle>
            <g id="Marker-shape---template" fill="#666666">
                <path d="M17.5,0 C7.825,0 0,7.825 0,17.5 C0,30.625 17.5,50 17.5,50 C17.5,50 35,30.625 35,17.5 C35,7.825 27.175,0 17.5,0 L17.5,0 Z M17.5,33 C8.944,33 2,26.056 2,17.5 C2,8.944 8.944,2 17.5,2 C26.056,2 33,8.944 33,17.5 C33,26.056 26.056,33 17.5,33 L17.5,33 Z" id="Marker-shape"></path>
            </g>
            <g id="Markers\parkride_template" transform="translate(4.500000, 6.000000)" font-size="12" font-family="AvenirNext-DemiBold, Avenir Next" letter-spacing="-0.699999988" fill="#666666" font-weight="500">
                <text id="P&amp;R">
                    <tspan x="1.76999999" y="15">P</tspan>
                    <tspan x="8.39000001" y="15" letter-spacing="-0.6">&amp;</tspan>
                    <tspan x="16.682" y="15">R</tspan>
                </text>
            </g>
        </g>
    </g>
</svg>