<?xml version="1.0" encoding="UTF-8"?>
<svg width="35px" height="50px" viewBox="0 0 35 50" version="1.1" xmlns="http://www.w3.org/2000/svg" xmlns:xlink="http://www.w3.org/1999/xlink">
    <!-- Generator: Sketch 47.1 (45422) - http://www.bohemiancoding.com/sketch -->
    <title>parkride_marker_none</title>
    <desc>Created with Sketch.</desc>
    <defs></defs>
    <g id="Symbols" stroke="none" stroke-width="1" fill="none" fill-rule="evenodd">
        <g id="parkride_marker_none">
            <g id="P&amp;R-marker">
                <circle id="Oval" fill="#FF0000" cx="17.5" cy="17.5" r="15.5"></circle>
                <g id="Marker-shape---template" fill="#666666">
                    <path d="M17.5,0 C7.825,0 0,7.825 0,17.5 C0,30.625 17.5,50 17.5,50 C17.5,50 35,30.625 35,17.5 C35,7.825 27.175,0 17.5,0 L17.5,0 Z M17.5,33 C8.944,33 2,26.056 2,17.5 C2,8.944 8.944,2 17.5,2 C26.056,2 33,8.944 33,17.5 C33,26.056 26.056,33 17.5,33 L17.5,33 Z" id="Marker-shape"></path>
                </g>
                <text id="P&amp;R" font-family="AvenirNext-DemiBold, Avenir Next" font-size="12" font-weight="500" letter-spacing="-0.699999988" fill="#666666">
                    <tspan x="6.26999999" y="21">P</tspan>
                    <tspan x="12.89" y="21" letter-spacing="-0.6">&amp;</tspan>
                    <tspan x="21.182" y="21">R</tspan>
                </text>
            </g>
        </g>
    </g>
</svg>