<?xml version="1.0" encoding="UTF-8"?>
<svg width="50px" height="50px" viewBox="0 0 50 50" version="1.1" xmlns="http://www.w3.org/2000/svg" xmlns:xlink="http://www.w3.org/1999/xlink">
    <!-- Generator: Sketch 47.1 (45422) - http://www.bohemiancoding.com/sketch -->
    <title>icons/park_icon_active</title>
    <desc>Created with Sketch.</desc>
    <defs></defs>
    <g id="City-Dashboard" stroke="none" stroke-width="1" fill="none" fill-rule="evenodd">
        <g id="Desktop-(Out-of-date-versions)" transform="translate(-13671.000000, -2931.000000)"></g>
        <g id="icons/park_icon_active">
            <g id="Parking-Icon" transform="translate(5.000000, 5.000000)">
                <g id="Parking-box" transform="translate(0.689655, 0.666667)" stroke="#4A4A4A" stroke-linecap="square">
                    <path d="M37.9797587,0.333333333 L38.3103448,0.333333333 L38.3103448,0.988505747 L38.3103448,37.6781609 L38.3103448,38.3333333 L37.3359859,38.3333333 L37.3359859,37.6781609 L37.3359859,1.33333333 L1.94587596,1.33333333 L1.2847038,1.33333333 L1.2847038,0.333333333 L1.94587596,0.333333333 L37.6491727,0.333333333 L37.9797587,0.333333333 Z M2.94111406,38.3333333 L2.25906278,38.3333333 L2.25906278,37.3333333 L2.94111406,37.3333333 L8.39752431,37.3333333 L9.0795756,37.3333333 L9.0795756,38.3333333 L8.39752431,38.3333333 L2.94111406,38.3333333 Z M31.1975243,38.3333333 L30.515473,38.3333333 L30.515473,37.3333333 L31.1975243,37.3333333 L36.6539346,37.3333333 L37.3359859,37.3333333 L37.3359859,38.3333333 L36.6539346,38.3333333 L31.1975243,38.3333333 Z M37.9797587,0.333333333 L37.3359859,0.333333333 L37.3359859,0.988505747 L37.3359859,1.33333333 L37.6491727,1.33333333 L38.3103448,1.33333333 L38.3103448,0.333333333 L37.9797587,0.333333333 Z M1.2847038,37.6781609 L1.2847038,38.3333333 L0.310344828,38.3333333 L0.310344828,37.6781609 L0.310344828,0.988505747 L0.310344828,0.333333333 L1.2847038,0.333333333 L1.2847038,0.988505747 L1.2847038,37.6781609 Z" id="Combined-Shape"></path>
                </g>
                <path d="M11.5,8.39999962 L19.3855422,8.39999962 C20.7737687,8.39999962 22.0254295,8.52429216 23.1405622,8.77288097 C24.255695,9.02146979 25.2115087,9.42824538 26.0080321,9.99321996 C26.8045555,10.5581945 27.4190072,11.2813511 27.8514056,12.1627115 C28.283804,13.0440718 28.5,14.1062081 28.5,15.3491522 C28.5,16.6824922 28.2496678,17.801125 27.748996,18.7050844 C27.2483241,19.6090437 26.5712894,20.33785 25.7178715,20.891525 C24.8644536,21.4452001 23.8688143,21.8463261 22.7309237,22.0949149 C21.5930331,22.3435037 20.3868872,22.4677962 19.1124498,22.4677962 L15.8012048,22.4677962 L15.8012048,32.3999996 L11.5,32.3999996 L11.5,8.39999962 Z M18.8052209,18.8745759 C19.510713,18.8745759 20.1820584,18.8237289 20.8192771,18.7220335 C21.4564958,18.6203381 22.0254326,18.4395489 22.5261044,18.1796606 C23.0267763,17.9197723 23.425032,17.5638437 23.7208835,17.111864 C24.0167351,16.6598844 24.1646586,16.0723196 24.1646586,15.3491522 C24.1646586,14.6485837 24.0167351,14.0779679 23.7208835,13.6372878 C23.425032,13.1966076 23.0324656,12.8519783 22.5431727,12.6033894 C22.0538797,12.3548006 21.4963217,12.1909605 20.8704819,12.111864 C20.2446421,12.0327676 19.6017436,11.99322 18.9417671,11.99322 L15.8012048,11.99322 L15.8012048,18.8745759 L18.8052209,18.8745759 Z" id="P" fill="#4A4A4A"></path>
            </g>
        </g>
    </g>
</svg>