<?xml version="1.0" encoding="UTF-8"?>
<svg width="35px" height="50px" viewBox="0 0 35 50" version="1.1" xmlns="http://www.w3.org/2000/svg" xmlns:xlink="http://www.w3.org/1999/xlink">
    <!-- Generator: Sketch 47.1 (45422) - http://www.bohemiancoding.com/sketch -->
    <title>park_marker_some</title>
    <desc>Created with Sketch.</desc>
    <defs></defs>
    <g id="Symbols" stroke="none" stroke-width="1" fill="none" fill-rule="evenodd">
        <g id="park_marker_some">
            <g id="Parking-marker">
                <circle id="Oval" fill="#F5A623" cx="17.5" cy="17.5" r="15.5"></circle>
                <g id="Marker-shape---template" fill="#4A4A4A">
                    <path d="M17.5,0 C7.825,0 0,7.825 0,17.5 C0,30.625 17.5,50 17.5,50 C17.5,50 35,30.625 35,17.5 C35,7.825 27.175,0 17.5,0 L17.5,0 Z M17.5,33 C8.944,33 2,26.056 2,17.5 C2,8.944 8.944,2 17.5,2 C26.056,2 33,8.944 33,17.5 C33,26.056 26.056,33 17.5,33 L17.5,33 Z" id="Marker-shape"></path>
                </g>
                <g id="Markers\park_template" transform="translate(8.000000, 8.000000)" font-family="AvenirNext-DemiBold, Avenir Next" font-weight="500" fill="#4A4A4A" font-size="20">
                    <g id="Park-Icon" transform="translate(0.500000, 0.000000)">
                        <text id="P">
                            <tspan x="3" y="16">P</tspan>
                        </text>
                    </g>
                </g>
            </g>
        </g>
    </g>
</svg>