<?xml version="1.0" encoding="UTF-8"?>
<svg width="50px" height="50px" viewBox="0 0 50 50" version="1.1" xmlns="http://www.w3.org/2000/svg" xmlns:xlink="http://www.w3.org/1999/xlink">
    <!-- Generator: Sketch 47.1 (45422) - http://www.bohemiancoding.com/sketch -->
    <title>icons/park_icon_active</title>
    <desc>Created with Sketch.</desc>
    <defs></defs>
    <g id="City-Dashboard" stroke="none" stroke-width="1" fill="none" fill-rule="evenodd">
        <g id="Desktop-(Out-of-date-versions)" transform="translate(-12674.000000, -2544.000000)"></g>
        <g id="icons/park_icon_active">
            <g id="Parking-Icon" transform="translate(7.500000, 7.500000)">
                <g id="Parking-box" transform="translate(0.603448, 0.583333)" stroke="#4A4A4A" stroke-linecap="square">
                    <path d="M33.2322889,0.291666667 L33.5215517,0.291666667 L33.5215517,0.864942529 L33.5215517,32.9683908 L33.5215517,33.5416667 L32.6689876,33.5416667 L32.6689876,32.9683908 L32.6689876,1.16666667 L1.70264147,1.16666667 L1.12411583,1.16666667 L1.12411583,0.291666667 L1.70264147,0.291666667 L32.9430261,0.291666667 L33.2322889,0.291666667 Z M2.5734748,33.5416667 L1.97667993,33.5416667 L1.97667993,32.6666667 L2.5734748,32.6666667 L7.34783378,32.6666667 L7.94462865,32.6666667 L7.94462865,33.5416667 L7.34783378,33.5416667 L2.5734748,33.5416667 Z M27.2978338,33.5416667 L26.7010389,33.5416667 L26.7010389,32.6666667 L27.2978338,32.6666667 L32.0721927,32.6666667 L32.6689876,32.6666667 L32.6689876,33.5416667 L32.0721927,33.5416667 L27.2978338,33.5416667 Z M33.2322889,0.291666667 L32.6689876,0.291666667 L32.6689876,0.864942529 L32.6689876,1.16666667 L32.9430261,1.16666667 L33.5215517,1.16666667 L33.5215517,0.291666667 L33.2322889,0.291666667 Z M1.12411583,32.9683908 L1.12411583,33.5416667 L0.271551724,33.5416667 L0.271551724,32.9683908 L0.271551724,0.864942529 L0.271551724,0.291666667 L1.12411583,0.291666667 L1.12411583,0.864942529 L1.12411583,32.9683908 Z" id="Combined-Shape"></path>
                </g>
                <path d="M10.0625,7.34999967 L16.9623494,7.34999967 C18.1770476,7.34999967 19.2722508,7.45875564 20.247992,7.67627085 C21.2237331,7.89378606 22.0600701,8.24971471 22.7570281,8.74406746 C23.4539861,9.23842022 23.9916313,9.87118225 24.3699799,10.6423725 C24.7483285,11.4135628 24.9375,12.3429321 24.9375,13.4305081 C24.9375,14.5971806 24.7184594,15.5759844 24.2803715,16.3669488 C23.8422836,17.1579132 23.2498782,17.7956187 22.5031376,18.2800844 C21.7563969,18.7645501 20.8852125,19.1155353 19.8895582,19.3330505 C18.893904,19.5505657 17.8385263,19.6593217 16.7233936,19.6593217 L13.8260542,19.6593217 L13.8260542,28.3499997 L10.0625,28.3499997 L10.0625,7.34999967 Z M16.4545683,16.5152539 C17.0718739,16.5152539 17.6593011,16.4707628 18.2168675,16.3817793 C18.7744338,16.2927958 19.2722535,16.1346053 19.7103414,15.9072031 C20.1484292,15.6798008 20.496903,15.3683632 20.7557731,14.972881 C21.0146432,14.5773988 21.1440763,14.0632797 21.1440763,13.4305081 C21.1440763,12.8175107 21.0146432,12.3182219 20.7557731,11.9326268 C20.496903,11.5470316 20.1534074,11.245481 19.7252761,11.0279658 C19.2971448,10.8104506 18.8092815,10.6670904 18.2616717,10.597881 C17.7140619,10.5286716 17.1515256,10.4940675 16.5740462,10.4940675 L13.8260542,10.4940675 L13.8260542,16.5152539 L16.4545683,16.5152539 Z" id="P" fill="#4A4A4A"></path>
            </g>
        </g>
    </g>
</svg>