<?xml version="1.0" encoding="UTF-8"?>
<svg width="35px" height="64px" viewBox="0 0 35 64" version="1.1" xmlns="http://www.w3.org/2000/svg" xmlns:xlink="http://www.w3.org/1999/xlink">
    <!-- Generator: Sketch 47.1 (45422) - http://www.bohemiancoding.com/sketch -->
    <title>P&amp;R marker - red</title>
    <desc>Created with Sketch.</desc>
    <defs></defs>
    <g id="Symbols" stroke="none" stroke-width="1" fill="none" fill-rule="evenodd">
        <g id="P&amp;R-marker---red">
            <g id="P&amp;R-marker">
                <g id="Polygon" transform="translate(0.000000, 8.000000)">
                    <path d="M19.2888544,16.7522375 L21,20.1745288 L34.5690577,50.7049087 L34.5690577,50.7049087 C34.8531888,51.3442037 35,52.0360093 35,52.735601 L35,55.1745288 L0,55.1745288 L0,52.735601 L7.10542736e-15,52.735601 C7.01975208e-15,52.0360093 0.146811151,51.3442037 0.430942257,50.7049087 L14,20.1745288 L15.7111456,16.7522375 L15.7111456,16.7522375 C16.2051241,15.7642805 17.4064702,15.3638319 18.3944272,15.8578103 C18.781482,16.0513378 19.095327,16.3651827 19.2888544,16.7522375 Z" id="Triangle-3" fill="#4A4A4A" transform="translate(17.500000, 36.337264) scale(1, -1) translate(-17.500000, -36.337264) "></path>
                    <circle id="Oval-8" fill="#4A4A4A" cx="17.5" cy="17.5" r="17.5"></circle>
                    <circle id="Oval-9" fill="#FFFFFF" cx="17.5" cy="17.5" r="15.75"></circle>
                </g>
                <g id="Park-&amp;-Ride-icon" transform="translate(5.000000, 11.000000)">
                    <g id="Car" transform="translate(2.500000, 10.000000)">
                        <rect id="Body" stroke="#4A4A4A" x="1.07692308" y="7.19230769" width="17.75" height="6.5" rx="1"></rect>
                        <path d="M2.36790624,6.94230769 L17.7090168,6.94230769 L16.352335,2.27372615 C16.1661461,1.63301714 15.5791359,1.19230769 14.9119221,1.19230769 L5.16500101,1.19230769 C4.49778713,1.19230769 3.91077699,1.63301714 3.72458805,2.27372615 L2.36790624,6.94230769 Z" id="Roof" stroke="#4A4A4A"></path>
                        <g id="Headlights" transform="translate(3.692308, 8.596154)" fill="#4A4A4A">
                            <circle id="Oval" cx="1.47115385" cy="1.96153846" r="1.47115385"></circle>
                            <circle id="Oval" cx="11.2788462" cy="1.96153846" r="1.47115385"></circle>
                        </g>
                        <g id="Wheels" transform="translate(2.711538, 13.500000)" fill="#4A4A4A">
                            <path d="M0.865384615,0.317307692 L0.865384615,0.317307692 L1.24038462,0.317307692 L1.24038462,0.317307692 L1.24038462,0.317307692 C1.50027177,0.202957343 1.80365121,0.320938237 1.91800156,0.580825394 C1.94671224,0.646076926 1.96153846,0.716586411 1.96153846,0.787875016 L1.96153846,1.96153846 L1.96153846,1.96153846 C1.96153846,2.50320235 1.52243312,2.94230769 0.980769231,2.94230769 L0.980769231,2.94230769 L0.980769231,2.94230769 C0.439105342,2.94230769 3.99401602e-16,2.50320235 3.33066907e-16,1.96153846 L-2.49800181e-16,0.921723768 L-5.55111512e-16,0.921723768 C-7.56545106e-16,0.566181962 0.288223582,0.27795838 0.643765388,0.27795838 C0.719376047,0.27795838 0.794395558,0.291278371 0.865384615,0.317307692 Z" id="Rectangle"></path>
                            <path d="M13.7307692,0.317307692 L13.7307692,0.317307692 L13.7307692,0.317307692 L13.7307692,0.317307692 C14.1248319,0.189816832 14.5476346,0.405915972 14.6751254,0.79997863 C14.6992516,0.874550556 14.7115385,0.952443666 14.7115385,1.03082125 L14.7115385,1.96153846 L14.7115385,1.96153846 C14.7115385,2.50320235 14.2724331,2.94230769 13.7307692,2.94230769 L13.7307692,2.94230769 L13.7307692,2.94230769 C13.1891053,2.94230769 12.75,2.50320235 12.75,1.96153846 L12.75,1.03082125 L12.75,1.03082125 C12.75,0.616648224 13.0857536,0.280894645 13.4999266,0.280894645 C13.5783042,0.280894645 13.6561973,0.293181481 13.7307692,0.317307692 Z" id="Rectangle"></path>
                        </g>
                    </g>
                    <text id="P&amp;R" font-family="AvenirNext-DemiBold, Avenir Next" font-size="8" font-weight="500" fill="#4A4A4A">
                        <tspan x="4.49153827" y="8">P&amp;R</tspan>
                    </text>
                </g>
                <g id="Orange-lines" fill="#FF0000">
                    <rect id="Rectangle-50" x="0" y="0" width="35" height="5" rx="2"></rect>
                </g>
            </g>
        </g>
    </g>
</svg>