<?xml version="1.0" encoding="UTF-8"?>
<svg width="35px" height="56px" viewBox="0 0 35 56" version="1.1" xmlns="http://www.w3.org/2000/svg" xmlns:xlink="http://www.w3.org/1999/xlink">
    <!-- Generator: Sketch 47.1 (45422) - http://www.bohemiancoding.com/sketch -->
    <title>Parkeer Poly</title>
    <desc>Created with Sketch.</desc>
    <defs></defs>
    <g id="Symbols" stroke="none" stroke-width="1" fill="none" fill-rule="evenodd">
        <g id="Parkeer-Poly">
            <g id="Parkeer-icon">
                <g id="Polygon">
                    <path d="M19.2888544,16.7522375 L21,20.1745288 L34.5690577,50.7049087 L34.5690577,50.7049087 C34.8531888,51.3442037 35,52.0360093 35,52.735601 L35,55.1745288 L0,55.1745288 L0,52.735601 L7.10542736e-15,52.735601 C7.01975208e-15,52.0360093 0.146811151,51.3442037 0.430942257,50.7049087 L14,20.1745288 L15.7111456,16.7522375 L15.7111456,16.7522375 C16.2051241,15.7642805 17.4064702,15.3638319 18.3944272,15.8578103 C18.781482,16.0513378 19.095327,16.3651827 19.2888544,16.7522375 Z" id="Triangle-3" fill="#2CAE04" transform="translate(17.500000, 36.337264) scale(1, -1) translate(-17.500000, -36.337264) "></path>
                    <circle id="Oval-8" fill="#2CAE04" cx="17.5" cy="17.5" r="17.5"></circle>
                    <circle id="Oval-9" fill="#FFFFFF" cx="17.5" cy="17.5" r="15.75"></circle>
                </g>
                <g id="P" transform="translate(12.000000, 14.000000)" stroke="#2CAE04">
                    <circle id="Oval" stroke-width="2" cx="6.5" cy="4.5" r="4.5"></circle>
                    <path d="M1.5,0.5 L1.5,14.5" id="Line" stroke-width="2.5" stroke-linecap="square"></path>
                </g>
                <path d="M18.216222,5.0934969 C21.8108147,7.72899793 25.4054073,10.364499 29,13 C29,13 25.3104674,10.8745568 17.9314021,6.62367029 L6,13 L17.6393773,5.08329652 L17.6393773,5.08329652 C17.8144281,4.96423295 18.0454901,4.96831883 18.216222,5.0934969 Z" id="Triangle" stroke="#2CAE04" stroke-width="2"></path>
            </g>
        </g>
    </g>
</svg>