<svg xmlns="http://www.w3.org/2000/svg" width="100" height="100" viewBox="0 0 100 100">
  <g fill="#F9F9F9" fill-rule="evenodd" transform="translate(20 20)">
    <path d="M50.0693788 43.5799019L55.2974745 47.2406538 58.5517657 44.2631137 57.686668 48.9135851 59.4714208 51.449747 56.4777867 50.6400464 52.5681089 52.8086613 54.0885933 48.9671152 49.0558353 45.4431401C48.2735522 46.3428436 47.1722797 46.9963133 45.9982306 47.2476578L45.9982306 54.1666667 51.2672809 55.1388889 45.9982306 57.0833333 44.9444206 60 43.8906105 57.0833333 38.6215603 55.1388889 43.8906105 54.1666667 43.8906105 47.2476578C42.7457505 47.0025622 41.6700934 46.375088 40.8919407 45.509786L35.954363 48.9671152 37.4748474 52.8086613 33.5651695 50.6400464 30.5715355 51.449747 32.3562883 48.9135851 31.4911906 44.2631137 34.7454818 47.2406538 39.8448531 43.6700356C39.7348431 43.2952706 39.6753703 42.9033729 39.6753703 42.5 39.6753703 41.8926076 39.7961172 41.3112337 40.0166734 40.7751946L34.6417762 37.0116511 31.4111486 39.7850382 32.2525827 35.3387198 30.4678298 32.8025579 33.4614639 33.6122585 37.3518491 31.3008386 35.8506574 35.2851898 41.230235 39.0520105C41.9455811 38.3961112 42.863891 37.9284061 43.8906105 37.7361287L43.8906105 30.8333333 38.6215603 29.8611111 43.8906105 27.9166667 44.9444206 25 45.9982306 27.9166667 51.2672809 29.8611111 45.9982306 30.8333333 45.9982306 37.7361287C47.0479576 37.9327148 47.9843619 38.4172109 48.7063893 39.0963867L54.1493426 35.2851898 52.6481509 31.3008386 56.5385361 33.6122585 59.5321702 32.8025579 57.7474173 35.3387198 58.5888514 39.7850382 55.3582238 37.0116511 49.896639 40.835894C50.1016396 41.3550206 50.2134708 41.9154616 50.2134708 42.5 50.2134708 42.8711514 50.1631199 43.2325878 50.0693788 43.5799019zM17.2023247 22.9256302L21.6835496 26.0634176 24.472942 23.5112404 23.7314297 27.4973587 25.2612178 29.6712118 22.6952458 28.9771827 19.3440934 30.8359954 20.6473657 27.5432416 16.3335731 24.5226915C15.6630447 25.293866 14.7190969 25.8539828 13.7127691 26.0694209L13.7127691 32 18.2290979 32.8333333 13.7127691 34.5 12.8095033 37 11.9062376 34.5 7.38990881 32.8333333 11.9062376 32 11.9062376 26.0694209C10.924929 25.859339 10.0029372 25.321504 9.33594916 24.5798166L5.10373971 27.5432416 6.40701202 30.8359954 3.0558596 28.9771827.489887534 29.6712118 2.01967569 27.4973587 1.27816335 23.5112404 4.0675558 26.0634176 8.43844553 23.0028876C8.34415127 22.6816605 8.29317457 22.3457482 8.29317457 22 8.29317457 21.4793779 8.39667185 20.9810574 8.58572007 20.5215954L3.97866528 17.2957009 1.20955591 19.6728899 1.93078517 15.8617598.400997008 13.6879067 2.96696907 14.3819358 6.30158492 12.4007188 5.01484918 15.8158769 9.6259157 19.0445805C10.2390695 18.4823811 11.0261923 18.0814909 11.9062376 17.9166818L11.9062376 12 7.38990881 11.1666667 11.9062376 9.5 12.8095033 7 13.7127691 9.5 18.2290979 11.1666667 13.7127691 12 13.7127691 17.9166818C14.6125351 18.0851841 15.4151674 18.5004665 16.034048 19.0826171L20.6994365 15.8158769 19.4127008 12.4007188 22.7473166 14.3819358 25.3132887 13.6879067 23.7835005 15.8617598 24.5047298 19.6728899 21.7356204 17.2957009 17.054262 20.5736234C17.2299768 21.0185891 17.3258321 21.4989671 17.3258321 22 17.3258321 22.3181298 17.2826742 22.6279324 17.2023247 22.9256302zM43.4682165 10.6170868L46.4556997 12.7089451 48.3152947 11.0074936 47.8209531 13.6649058 48.8408119 15.1141412 47.1301639 14.6514551 44.8960622 15.8906636 45.7649104 13.6954944 42.8890487 11.6817943C42.4420298 12.1959106 41.8127313 12.5693219 41.1418461 12.7129473L41.1418461 16.6666667 44.1527319 17.2222222 41.1418461 18.3333333 40.5396689 20 39.9374917 18.3333333 36.9266059 17.2222222 39.9374917 16.6666667 39.9374917 12.7129473C39.283286 12.5728927 38.6686248 12.214336 38.2239661 11.7198777L35.4024931 13.6954944 36.2713413 15.8906636 34.0372397 14.6514551 32.3265917 15.1141412 33.3464505 13.6649058 32.8521089 11.0074936 34.7117039 12.7089451 37.6256304 10.6685918C37.5627675 10.4544404 37.528783 10.2304988 37.528783 10 37.528783 9.65291862 37.5977812 9.32070495 37.7238134 9.01439694L34.6524435 6.86380061 32.8063706 8.44859324 33.2871901 5.90783988 32.2673313 4.45860449 33.9779794 4.92129056 36.2010566 3.60047919 35.3432328 5.87725129 38.4172771 8.02972031C38.8260463 7.65492071 39.3507949 7.38766061 39.9374917 7.27778784L39.9374917 3.33333333 36.9266059 2.77777778 39.9374917 1.66666667 40.5396689 0 41.1418461 1.66666667 44.1527319 2.77777778 41.1418461 3.33333333 41.1418461 7.27778784C41.74169 7.39012272 42.2767782 7.66697766 42.6893653 8.0550781L45.7996244 5.87725129 44.9418005 3.60047919 47.1648778 4.92129056 48.8755258 4.45860449 47.855667 5.90783988 48.3364865 8.44859324 46.4904136 6.86380061 43.369508 9.04908226C43.4866512 9.34572607 43.5505547 9.66597807 43.5505547 10 43.5505547 10.2120865 43.5217828 10.4186216 43.4682165 10.6170868z"/>
  </g>
</svg>
