<?xml version="1.0" encoding="UTF-8"?>
<svg width="40px" height="40px" viewBox="0 0 40 40" version="1.1" xmlns="http://www.w3.org/2000/svg" xmlns:xlink="http://www.w3.org/1999/xlink">
    <!-- Generator: Sketch 47.1 (45422) - http://www.bohemiancoding.com/sketch -->
    <title>traffic_icon</title>
    <desc>Created with Sketch.</desc>
    <defs></defs>
    <g id="Symbols" stroke="none" stroke-width="1" fill="none" fill-rule="evenodd">
        <g id="traffic_icon">
            <g id="Traffic-Icon" transform="translate(5.000000, 8.500000)">
                <g id="Car" transform="translate(0.256410, 0.085470)">
                    <rect id="Body" stroke="#F9F9F9" x="1.35470085" y="9.41452991" width="26.7777778" height="10.1111111" rx="1"></rect>
                    <path d="M3.24358974,8.91452991 L5.32133464,1.85019727 L5.32133464,1.85019727 C5.57167743,0.999031784 6.35284854,0.414529915 7.24006564,0.414529915 L22.2471138,0.414529915 L22.2471138,0.414529915 C23.1343309,0.414529915 23.9155021,0.999031784 24.1658448,1.85019727 L26.2435897,8.91452991" id="Roof" stroke="#F9F9F9" stroke-linecap="square"></path>
                    <g id="Headlights" transform="translate(5.470085, 11.735043)" fill="#F9F9F9">
                        <circle id="Oval" cx="2.17948718" cy="2.90598291" r="2.17948718"></circle>
                        <circle id="Oval" cx="16.7094017" cy="2.90598291" r="2.17948718"></circle>
                    </g>
                    <g id="Wheels" transform="translate(4.017094, 19.000000)" fill="#F9F9F9">
                        <path d="M1.28205128,0.47008547 L1.28205128,0.47008547 L1.83760684,0.47008547 L1.83760684,0.47008547 L1.83760684,0.47008547 C2.22262485,0.300677546 2.67207587,0.475464055 2.8414838,0.860482065 C2.88401813,0.957151001 2.90598291,1.0616095 2.90598291,1.16722225 L2.90598291,2.90598291 L2.90598291,2.90598291 C2.90598291,3.70844793 2.25545647,4.35897436 1.45299145,4.35897436 L1.45299145,4.35897436 L1.45299145,4.35897436 C0.650526432,4.35897436 1.43054125e-15,3.70844793 1.33226763e-15,2.90598291 L-4.93432455e-17,1.36551669 L2.22044605e-16,1.36551669 C1.57538955e-16,0.838788091 0.426997899,0.411790193 0.9537265,0.411790193 C1.06574229,0.411790193 1.17688231,0.431523513 1.28205128,0.47008547 Z" id="Rectangle"></path>
                        <path d="M20.3418803,0.47008547 L20.3418803,0.47008547 L20.3418803,0.47008547 L20.3418803,0.47008547 C20.9256769,0.281210122 21.5520512,0.601356996 21.7409265,1.18515353 C21.7766691,1.29563045 21.7948718,1.41102765 21.7948718,1.5271426 L21.7948718,2.90598291 L21.7948718,2.90598291 C21.7948718,3.70844793 21.1443454,4.35897436 20.3418803,4.35897436 L20.3418803,4.35897436 L20.3418803,4.35897436 C19.5394153,4.35897436 18.8888889,3.70844793 18.8888889,2.90598291 L18.8888889,1.5271426 L18.8888889,1.5271426 C18.8888889,0.913552924 19.3863016,0.416140215 19.9998913,0.416140215 C20.1160062,0.416140215 20.2314034,0.434342935 20.3418803,0.47008547 Z" id="Rectangle"></path>
                    </g>
                </g>
            </g>
        </g>
    </g>
</svg>