<?xml version="1.0" encoding="UTF-8"?>
<svg width="50px" height="50px" viewBox="0 0 50 50" version="1.1" xmlns="http://www.w3.org/2000/svg" xmlns:xlink="http://www.w3.org/1999/xlink">
    <!-- Generator: Sketch 47.1 (45422) - http://www.bohemiancoding.com/sketch -->
    <title>icons/traffic_icon</title>
    <desc>Created with Sketch.</desc>
    <defs></defs>
    <g id="City-Dashboard" stroke="none" stroke-width="1" fill="none" fill-rule="evenodd">
        <g id="Desktop-(Out-of-date-versions)" transform="translate(-13823.000000, -2846.000000)"></g>
        <g id="icons/traffic_icon">
            <g id="Car" transform="translate(6.000000, 8.000000)">
                <path d="M1.00249195,12.6400061 L1,12.6399999 C0.723857625,12.6399999 0.5,12.8638575 0.5,13.1399999 L0.5,26.1400003 C0.5,26.4161427 0.723857625,26.6400003 1,26.6400003 L37,26.6400003 C37.2761424,26.6400003 37.5,26.4161427 37.5,26.1400003 L37.5,13.3194227 C37.5,13.044253 37.2776582,12.8208003 37.002492,12.8194289 L1.00249195,12.6400061 Z" id="Body" stroke="#F9F9F9"></path>
                <path d="M3.5,12.5736559 L6.45979322,2.03297295 L6.45979322,2.03297295 C6.70211027,1.17001158 7.4889853,0.573655914 8.38532222,0.573655914 L29.6146778,0.573655914 L29.6146778,0.573655914 C30.5110147,0.573655914 31.2978897,1.17001158 31.5402068,2.03297295 L34.5,12.5736559" id="Roof" stroke="#F9F9F9" stroke-linecap="square"></path>
                <g id="Headlights" transform="translate(5.276276, 17.239785)" fill="#F9F9F9">
                    <circle id="Oval" cx="3.72372372" cy="3.00537634" r="3"></circle>
                    <circle id="Oval" cx="23.7237237" cy="3.00537634" r="3"></circle>
                </g>
                <g id="Wheels" transform="translate(4.336336, 26.293548)" fill="#F9F9F9">
                    <path d="M1.49213975e-13,0.846451956 L3.87987988,0.846451956 L3.87987988,4.09231812 L3.87987988,4.09231812 C3.87987988,5.16371737 3.01133918,6.03225806 1.93993994,6.03225806 L1.93993994,6.03225806 L1.93993994,6.03225806 C0.868540696,6.03225806 5.65305382e-14,5.16371737 5.63993297e-14,4.09231812 L1.49213975e-13,0.846451956 Z" id="Rectangle"></path>
                    <path d="M25.2192192,0.846451956 L29.0990991,0.846451956 L29.0990991,4.09231812 L29.0990991,4.09231812 C29.0990991,5.16371737 28.2305584,6.03225806 27.1591592,6.03225806 L27.1591592,6.03225806 L27.1591592,6.03225806 C26.0877599,6.03225806 25.2192192,5.16371737 25.2192192,4.09231812 L25.2192192,0.846451956 Z" id="Rectangle"></path>
                </g>
            </g>
        </g>
    </g>
</svg>