<svg xmlns="http://www.w3.org/2000/svg" width="50" height="50" viewBox="0 0 50 50">
  <g fill="none" fill-rule="evenodd" transform="translate(7.5 7.5)">
    <path stroke="#666666" d="M1.00278512,12.9975089 C1.00139256,12.9975025 1.00139256,12.9975025 1,12.9975012 C0.723857625,12.9975012 0.5,13.2213588 0.5,13.4975012 L0.5,26.9382356 C0.5,27.214378 0.723857625,27.4382356 1,27.4382356 L34,27.4382356 C34.2761424,27.4382356 34.5,27.214378 34.5,26.9382356 L34.5,13.6813216 C34.5,13.4062663 34.2778362,13.1828615 34.0027851,13.1813294 L1.00278512,12.9975089 Z"/>
    <path stroke="#666666" stroke-linecap="square" d="M3.22368421,12.9434693 L5.9471896,2.10319435 C6.17059944,1.21396384 6.97004179,0.590528147 7.88690756,0.590528147 L27.1130924,0.590528147 C28.0299582,0.590528147 28.8294006,1.21396384 29.0528104,2.10319435 L31.7763158,12.9434693"/>
    <g fill="#666666" transform="translate(4.86 17.747)">
      <ellipse cx="3.43" cy="3.094" rx="2.763" ry="3.088"/>
      <ellipse cx="21.851" cy="3.094" rx="2.763" ry="3.088"/>
    </g>
    <g fill="#666666" transform="translate(3.994 27.067)">
      <path d="M0 .871347602L3.57357357.871347602 3.57357357 4.42289063C3.57357357 5.40970573 2.77360188 6.20967742 1.78678679 6.20967742L1.78678679 6.20967742C.799971693 6.20967742-1.0119461e-16 5.40970573-2.22044605e-16 4.42289063L0 .871347602zM23.2282282.871347602L26.8018018.871347602 26.8018018 4.42289063C26.8018018 5.40970573 26.0018301 6.20967742 25.015015 6.20967742L25.015015 6.20967742C24.0281999 6.20967742 23.2282282 5.40970573 23.2282282 4.42289063L23.2282282.871347602z"/>
    </g>
  </g>
</svg>
