<?xml version="1.0" encoding="UTF-8"?>
<svg width="50px" height="50px" viewBox="0 0 50 50" version="1.1" xmlns="http://www.w3.org/2000/svg" xmlns:xlink="http://www.w3.org/1999/xlink">
    <!-- Generator: Sketch 47.1 (45422) - http://www.bohemiancoding.com/sketch -->
    <title>icons/traffic_icon</title>
    <desc>Created with Sketch.</desc>
    <defs></defs>
    <g id="City-Dashboard" stroke="none" stroke-width="1" fill="none" fill-rule="evenodd">
        <g id="Desktop-(Out-of-date-versions)" transform="translate(-12826.000000, -2459.000000)"></g>
        <g id="icons/traffic_icon">
            <g id="Car" transform="translate(7.500000, 7.500000)">
                <path d="M1.00278512,12.9975089 L1,12.9975012 C0.723857625,12.9975012 0.5,13.2213588 0.5,13.4975012 L0.5,26.9382356 C0.5,27.214378 0.723857625,27.4382356 1,27.4382356 L34,27.4382356 C34.2761424,27.4382356 34.5,27.214378 34.5,26.9382356 L34.5,13.6813216 C34.5,13.4062663 34.2778362,13.1828615 34.0027851,13.1813294 L1.00278512,12.9975089 Z" id="Body" stroke="#F9F9F9"></path>
                <path d="M3.22368421,12.9434693 L5.9471896,2.10319435 L5.9471896,2.10319435 C6.17059944,1.21396384 6.97004179,0.590528147 7.88690756,0.590528147 L27.1130924,0.590528147 L27.1130924,0.590528147 C28.0299582,0.590528147 28.8294006,1.21396384 29.0528104,2.10319435 L31.7763158,12.9434693" id="Roof" stroke="#F9F9F9" stroke-linecap="square"></path>
                <g id="Headlights" transform="translate(4.859728, 17.746837)" fill="#F9F9F9">
                    <ellipse id="Oval" cx="3.42974554" cy="3.09376977" rx="2.76315789" ry="3.08823529"></ellipse>
                    <ellipse id="Oval" cx="21.8507982" cy="3.09376977" rx="2.76315789" ry="3.08823529"></ellipse>
                </g>
                <g id="Wheels" transform="translate(3.993994, 27.066888)" fill="#F9F9F9">
                    <path d="M1.41886503e-13,0.871347602 L3.57357357,0.871347602 L3.57357357,4.42289063 L3.57357357,4.42289063 C3.57357357,5.40970573 2.77360188,6.20967742 1.78678679,6.20967742 L1.78678679,6.20967742 L1.78678679,6.20967742 C0.799971693,6.20967742 5.05249753e-14,5.40970573 5.04041253e-14,4.42289063 L1.41886503e-13,0.871347602 Z" id="Rectangle"></path>
                    <path d="M23.2282282,0.871347602 L26.8018018,0.871347602 L26.8018018,4.42289063 L26.8018018,4.42289063 C26.8018018,5.40970573 26.0018301,6.20967742 25.015015,6.20967742 L25.015015,6.20967742 L25.015015,6.20967742 C24.0281999,6.20967742 23.2282282,5.40970573 23.2282282,4.42289063 L23.2282282,0.871347602 Z" id="Rectangle"></path>
                </g>
            </g>
        </g>
    </g>
</svg>