<?xml version="1.0" encoding="UTF-8"?>
<svg width="35px" height="50px" viewBox="0 0 35 50" version="1.1" xmlns="http://www.w3.org/2000/svg" xmlns:xlink="http://www.w3.org/1999/xlink">
    <!-- Generator: Sketch 47.1 (45422) - http://www.bohemiancoding.com/sketch -->
    <title>water_marker_none</title>
    <desc>Created with Sketch.</desc>
    <defs></defs>
    <g id="Symbols" stroke="none" stroke-width="1" fill="none" fill-rule="evenodd">
        <g id="water_marker_none">
            <g id="water-marker">
                <circle id="Oval" fill="#FFFFFF" cx="17.5" cy="17.5" r="15.5"></circle>
                <g id="Marker-shape---template" fill="#4A4A4A">
                    <path d="M17.5,0 C7.825,0 0,7.825 0,17.5 C0,30.625 17.5,50 17.5,50 C17.5,50 35,30.625 35,17.5 C35,7.825 27.175,0 17.5,0 L17.5,0 Z M17.5,33 C8.944,33 2,26.056 2,17.5 C2,8.944 8.944,2 17.5,2 C26.056,2 33,8.944 33,17.5 C33,26.056 26.056,33 17.5,33 L17.5,33 Z" id="Marker-shape"></path>
                </g>
                <g id="Markers\water_template" transform="translate(7.000000, 8.000000)" stroke-linecap="square" stroke="#4A4A4A">
                    <g id="Water" transform="translate(0.500000, 0.500000)">
                        <polyline id="Line" points="0.110000134 2.82999992 2.31999969 0.823529412 4.52999973 2.82999992 6.73999977 0.823529412 8.94999981 2.82999992 11.1599998 0.823529412 13.3700008 2.82999992 15.5799999 0.823529412 17.7900009 2.82999992 20 0.823529412"></polyline>
                        <polyline id="Line" points="0.110000134 7.82999992 2.31999969 5.82352941 4.52999973 7.82999992 6.73999977 5.82352941 8.94999981 7.82999992 11.1599998 5.82352941 13.3700008 7.82999992 15.5799999 5.82352941 17.7900009 7.82999992 20 5.82352941"></polyline>
                        <polyline id="Line" points="0.110000134 12.8299999 2.31999969 10.8235294 4.52999973 12.8299999 6.73999977 10.8235294 8.94999981 12.8299999 11.1599998 10.8235294 13.3700008 12.8299999 15.5799999 10.8235294 17.7900009 12.8299999 20 10.8235294"></polyline>
                        <polyline id="Line" points="0.110000134 17.8299999 2.31999969 15.8235294 4.52999973 17.8299999 6.73999977 15.8235294 8.94999981 17.8299999 11.1599998 15.8235294 13.3700008 17.8299999 15.5799999 15.8235294 17.7900009 17.8299999 20 15.8235294"></polyline>
                    </g>
                </g>
            </g>
        </g>
    </g>
</svg>