<?xml version="1.0" encoding="UTF-8"?>
<svg width="20px" height="32px" viewBox="0 0 20 32" version="1.1" xmlns="http://www.w3.org/2000/svg" xmlns:xlink="http://www.w3.org/1999/xlink">
    <!-- Generator: Sketch 47.1 (45422) - http://www.bohemiancoding.com/sketch -->
    <title>Water poly</title>
    <desc>Created with Sketch.</desc>
    <defs></defs>
    <g id="Symbols" stroke="none" stroke-width="1" fill="none" fill-rule="evenodd">
        <g id="Water-poly">
            <g id="Polygon">
                <path d="M11.7888544,11.1060109 L12,11.5283022 L19.5690577,28.5586821 L19.5690577,28.5586821 C19.8531888,29.1979771 20,29.8897827 20,30.5893744 L20,31.5283022 L0,31.5283022 L0,30.5893744 L1.77635684e-15,30.5893744 C1.69068156e-15,29.8897827 0.146811151,29.1979771 0.430942257,28.5586821 L8,11.5283022 L8.21114562,11.1060109 L8.21114562,11.1060109 C8.70512412,10.1180539 9.9064702,9.71760523 10.8944272,10.2115837 C11.281482,10.4051111 11.595327,10.7189561 11.7888544,11.1060109 Z" id="Triangle-3" fill="#4a4a4a" transform="translate(10.000000, 20.764151) scale(1, -1) translate(-10.000000, -20.764151) "></path>
                <circle id="Oval-8" fill="#4a4a4a" cx="10" cy="10" r="10"></circle>
                <circle id="Oval-9" fill="#FFFFFF" cx="10" cy="10" r="9"></circle>
            </g>
            <g id="Water" transform="translate(4.000000, 5.500000)" stroke-linecap="square" stroke-width="2" stroke="#4a4a4a">
                <polyline id="Line" points="-3.55271368e-15 0 0.535199418 0.28913072 1.85106383 1 4.31914894 0 6.78723404 1 9.25531915 0 11.7234043 1"></polyline>
                <polyline id="Line" points="-3.55271368e-15 4 0.535199418 4.28913072 1.85106383 5 4.31914894 4 6.78723404 5 9.25531915 4 11.7234043 5"></polyline>
                <polyline id="Line" points="-3.55271368e-15 8 0.535199418 8.28913072 1.85106383 9 4.31914894 8 6.78723404 9 9.25531915 8 11.7234043 9"></polyline>
            </g>
        </g>
    </g>
</svg>