<?xml version="1.0" encoding="UTF-8"?>
<svg width="41px" height="40px" viewBox="0 0 41 40" version="1.1" xmlns="http://www.w3.org/2000/svg" xmlns:xlink="http://www.w3.org/1999/xlink">
    <!-- Generator: Sketch 47.1 (45422) - http://www.bohemiancoding.com/sketch -->
    <title>water_icon</title>
    <desc>Created with Sketch.</desc>
    <defs></defs>
    <g id="Symbols" stroke="none" stroke-width="1" fill="none" fill-rule="evenodd" stroke-linecap="square">
        <g id="water_icon" stroke-width="2" stroke="#F9F9F9">
            <g id="Water" transform="translate(7.000000, 10.500000)">
                <polyline id="Line" points="0 3 3 0 6 3 9 0 12 3 15 0 18 3 21 0 24 3 27 0"></polyline>
                <polyline id="Line" points="0 19 3 16 6 19 9 16 12 19 15 16 18 19 21 16 24 19 27 16"></polyline>
                <polyline id="Line" points="0 11 3 8 6 11 9 8 12 11 15 8 18 11 21 8 24 11 27 8"></polyline>
            </g>
        </g>
    </g>
</svg>