<?xml version="1.0" encoding="UTF-8"?>
<svg width="50px" height="50px" viewBox="0 0 50 50" version="1.1" xmlns="http://www.w3.org/2000/svg" xmlns:xlink="http://www.w3.org/1999/xlink">
    <!-- Generator: Sketch 47.1 (45422) - http://www.bohemiancoding.com/sketch -->
    <title>icons/water_icon</title>
    <desc>Created with Sketch.</desc>
    <defs></defs>
    <g id="City-Dashboard" stroke="none" stroke-width="1" fill="none" fill-rule="evenodd">
        <g id="Desktop-(Out-of-date-versions)" transform="translate(-13899.000000, -2846.000000)"></g>
        <g id="icons/water_icon" stroke-linecap="square" stroke-width="2" stroke="#F9F9F9">
            <g id="Water" transform="translate(9.000000, 13.000000)">
                <polyline id="Line" points="0 3.78947368 3.55555556 0 7.11111111 3.78947368 10.6666667 0 14.2222222 3.78947368 17.7777778 0 21.3333333 3.78947368 24.8888889 0 28.4444444 3.78947368 32 0"></polyline>
                <polyline id="Line" points="0 24 3.55555556 20.2105263 7.11111111 24 10.6666667 20.2105263 14.2222222 24 17.7777778 20.2105263 21.3333333 24 24.8888889 20.2105263 28.4444444 24 32 20.2105263"></polyline>
                <polyline id="Line" points="0 13.8947368 3.55555556 10.1052632 7.11111111 13.8947368 10.6666667 10.1052632 14.2222222 13.8947368 17.7777778 10.1052632 21.3333333 13.8947368 24.8888889 10.1052632 28.4444444 13.8947368 32 10.1052632"></polyline>
            </g>
        </g>
    </g>
</svg>