<svg xmlns="http://www.w3.org/2000/svg" width="50" height="50" viewBox="0 0 50 50">
  <g fill="none" fill-rule="evenodd" stroke="#F9F9F9" stroke-linecap="square" stroke-width="2" transform="translate(7.5 10)">
    <polyline points="0 12.353 3.889 8.824 7.778 12.353 11.667 8.824 15.556 12.353 19.444 8.824 23.333 12.353 27.222 8.824 31.111 12.353 35 8.824"/>
    <polyline points="0 3.529 3.889 0 7.778 3.529 11.667 0 15.556 3.529 19.444 0 23.333 3.529 27.222 0 31.111 3.529 35 0"/>
    <polyline points="0 30 3.889 26.471 7.778 30 11.667 26.471 15.556 30 19.444 26.471 23.333 30 27.222 26.471 31.111 30 35 26.471"/>
    <polyline points="0 21.176 3.889 17.647 7.778 21.176 11.667 17.647 15.556 21.176 19.444 17.647 23.333 21.176 27.222 17.647 31.111 21.176 35 17.647"/>
  </g>
</svg>
