<?xml version="1.0" encoding="UTF-8"?>
<svg width="50px" height="50px" viewBox="0 0 50 50" version="1.1" xmlns="http://www.w3.org/2000/svg" xmlns:xlink="http://www.w3.org/1999/xlink">
    <!-- Generator: Sketch 47.1 (45422) - http://www.bohemiancoding.com/sketch -->
    <title>icons/water_icon_active</title>
    <desc>Created with Sketch.</desc>
    <defs></defs>
    <g id="City-Dashboard" stroke="none" stroke-width="1" fill="none" fill-rule="evenodd">
        <g id="Desktop-(Out-of-date-versions)" transform="translate(-12902.000000, -2544.000000)"></g>
        <g id="icons/water_icon_active" stroke-linecap="square" stroke-width="2" stroke="#4A4A4A">
            <g id="Water" transform="translate(7.500000, 7.500000)">
                <polyline id="Line" points="0 14.4117647 3.88888889 10.2941176 7.77777778 14.4117647 11.6666667 10.2941176 15.5555556 14.4117647 19.4444444 10.2941176 23.3333333 14.4117647 27.2222222 10.2941176 31.1111111 14.4117647 35 10.2941176"></polyline>
                <polyline id="Line" points="0 4.11764706 3.88888889 0 7.77777778 4.11764706 11.6666667 0 15.5555556 4.11764706 19.4444444 0 23.3333333 4.11764706 27.2222222 0 31.1111111 4.11764706 35 0"></polyline>
                <polyline id="Line" points="0 35 3.88888889 30.8823529 7.77777778 35 11.6666667 30.8823529 15.5555556 35 19.4444444 30.8823529 23.3333333 35 27.2222222 30.8823529 31.1111111 35 35 30.8823529"></polyline>
                <polyline id="Line" points="0 24.7058824 3.88888889 20.5882353 7.77777778 24.7058824 11.6666667 20.5882353 15.5555556 24.7058824 19.4444444 20.5882353 23.3333333 24.7058824 27.2222222 20.5882353 31.1111111 24.7058824 35 20.5882353"></polyline>
            </g>
        </g>
    </g>
</svg>