<?xml version="1.0" encoding="UTF-8"?>
<svg width="118px" height="50px" viewBox="0 0 118 50" version="1.1" xmlns="http://www.w3.org/2000/svg" xmlns:xlink="http://www.w3.org/1999/xlink">
    <!-- Generator: Sketch 47.1 (45422) - http://www.bohemiancoding.com/sketch -->
    <title>Weer embed - mockup</title>
    <desc>Created with Sketch.</desc>
    <defs></defs>
    <g id="Symbols" stroke="none" stroke-width="1" fill="none" fill-rule="evenodd">
        <g id="Weer-embed---mockup">
            <g id="Rain" transform="translate(19.000000, 35.000000)" fill="#96C3F7" fill-opacity="0.75">
                <rect id="Rectangle-39" transform="translate(2.500000, 4.500000) rotate(25.000000) translate(-2.500000, -4.500000) " x="2" y="1" width="1" height="7" rx="0.5"></rect>
                <rect id="Rectangle-39" transform="translate(6.500000, 3.500000) rotate(25.000000) translate(-6.500000, -3.500000) " x="6" y="0" width="1" height="7" rx="0.5"></rect>
                <rect id="Rectangle-39" transform="translate(2.635364, 11.383386) rotate(25.000000) translate(-2.635364, -11.383386) " x="2.13536438" y="7.88338639" width="1" height="7" rx="0.5"></rect>
                <rect id="Rectangle-39" transform="translate(8.500000, 6.500000) rotate(25.000000) translate(-8.500000, -6.500000) " x="8" y="3" width="1" height="7" rx="0.5"></rect>
                <rect id="Rectangle-39" transform="translate(12.500000, 3.500000) rotate(25.000000) translate(-12.500000, -3.500000) " x="12" y="0" width="1" height="7" rx="0.5"></rect>
                <rect id="Rectangle-39" transform="translate(8.635364, 11.383386) rotate(25.000000) translate(-8.635364, -11.383386) " x="8.13536438" y="7.88338639" width="1" height="7" rx="0.5"></rect>
                <rect id="Rectangle-39" transform="translate(14.500000, 6.500000) rotate(25.000000) translate(-14.500000, -6.500000) " x="14" y="3" width="1" height="7" rx="0.5"></rect>
            </g>
            <g id="Cloud" fill="#F9F9F9">
                <circle id="Oval-2" cx="44" cy="16" r="8"></circle>
                <ellipse id="Oval-3" cx="26.5" cy="12.5" rx="13.5" ry="12.5"></ellipse>
                <rect id="Rectangle-2" x="0" y="20" width="61" height="14" rx="7"></rect>
                <circle id="Oval" cx="10" cy="18" r="6"></circle>
            </g>
            <text id="do-15-feb-1째-/-8째" font-family="AvenirNext-DemiBold, Avenir Next" font-size="10" font-weight="500" fill="#F9F9F9">
                <tspan x="69" y="10">do 15</tspan>
                <tspan x="96.14" y="10" font-family="AvenirNext-DemiBoldItalic, Avenir Next" font-style="italic"> </tspan>
                <tspan x="98.64" y="10">feb</tspan>
                <tspan x="69" y="24" font-family="AvenirNext-Heavy, Avenir Next" font-weight="600">1째 / 8째</tspan>
                <tspan x="101.35" y="24"></tspan>
            </text>
        </g>
    </g>
</svg>