<svg xmlns="http://www.w3.org/2000/svg" width="100" height="100" viewBox="0 0 100 100">
  <path fill="#FFCC01" fill-opacity=".9" fill-rule="evenodd" d="M32,0 C33.3807119,-2.53632657e-16 34.5,1.11928813 34.5,2.5 L34.5,9.5 C34.5,10.8807119 33.3807119,12 32,12 C30.6192881,12 29.5,10.8807119 29.5,9.5 L29.5,2.5 C29.5,1.11928813 30.6192881,6.97721867e-16 32,4.4408921e-16 Z M55.2530483,8.76776695 C56.2293591,9.74407768 56.2293591,11.3269901 55.2530483,12.3033009 L50.3033009,17.2530483 C49.3269901,18.2293591 47.7440777,18.2293591 46.767767,17.2530483 C45.7914562,16.2767376 45.7914562,14.6938252 46.767767,13.7175144 L51.7175144,8.76776695 C52.6938252,7.79145622 54.2767376,7.79145622 55.2530483,8.76776695 Z M8.76776695,8.76776695 C9.74407768,7.79145622 11.3269901,7.79145622 12.3033009,8.76776695 L17.2530483,13.7175144 C18.2293591,14.6938252 18.2293591,16.2767376 17.2530483,17.2530483 C16.2767376,18.2293591 14.6938252,18.2293591 13.7175144,17.2530483 L8.76776695,12.3033009 C7.79145622,11.3269901 7.79145622,9.74407768 8.76776695,8.76776695 Z M17.2530483,46.767767 C18.2293591,47.7440777 18.2293591,49.3269901 17.2530483,50.3033009 L12.3033009,55.2530483 C11.3269901,56.2293591 9.74407768,56.2293591 8.76776695,55.2530483 C7.79145622,54.2767376 7.79145622,52.6938252 8.76776695,51.7175144 L13.7175144,46.767767 C14.6938252,45.7914562 16.2767376,45.7914562 17.2530483,46.767767 Z M46.767767,46.767767 C47.7440777,45.7914562 49.3269901,45.7914562 50.3033009,46.767767 L55.2530483,51.7175144 C56.2293591,52.6938252 56.2293591,54.2767376 55.2530483,55.2530483 C54.2767376,56.2293591 52.6938252,56.2293591 51.7175144,55.2530483 L46.767767,50.3033009 C45.7914562,49.3269901 45.7914562,47.7440777 46.767767,46.767767 Z M12,32 C12,33.3807119 10.8807119,34.5 9.5,34.5 L2.5,34.5 C1.11928813,34.5 0,33.3807119 0,32 C0,30.6192881 1.11928813,29.5 2.5,29.5 L9.5,29.5 C10.8807119,29.5 12,30.6192881 12,32 Z M64,32 C64,33.3807119 62.8807119,34.5 61.5,34.5 L54.5,34.5 C53.1192881,34.5 52,33.3807119 52,32 C52,30.6192881 53.1192881,29.5 54.5,29.5 L61.5,29.5 C62.8807119,29.5 64,30.6192881 64,32 Z M32,52 C33.3807119,52 34.5,53.1192881 34.5,54.5 L34.5,61.5 C34.5,62.8807119 33.3807119,64 32,64 C30.6192881,64 29.5,62.8807119 29.5,61.5 L29.5,54.5 C29.5,53.1192881 30.6192881,52 32,52 Z M32,47 C23.7157288,47 17,40.2842712 17,32 C17,23.7157288 23.7157288,17 32,17 C40.2842712,17 47,23.7157288 47,32 C47,40.2842712 40.2842712,47 32,47 Z" transform="translate(18 18)"/>
</svg>
