<svg xmlns="http://www.w3.org/2000/svg" xmlns:xlink="http://www.w3.org/1999/xlink" width="100" height="100" viewBox="0 0 100 100">
  <defs>
    <path id="zonnig-a" d="M32,0 C33.3807119,-2.53632657e-16 34.5,1.11928813 34.5,2.5 L34.5,9.5 C34.5,10.8807119 33.3807119,12 32,12 C30.6192881,12 29.5,10.8807119 29.5,9.5 L29.5,2.5 C29.5,1.11928813 30.6192881,6.97721867e-16 32,4.4408921e-16 Z M55.2530483,8.76776695 C56.2293591,9.74407768 56.2293591,11.3269901 55.2530483,12.3033009 L50.3033009,17.2530483 C49.3269901,18.2293591 47.7440777,18.2293591 46.767767,17.2530483 C45.7914562,16.2767376 45.7914562,14.6938252 46.767767,13.7175144 L51.7175144,8.76776695 C52.6938252,7.79145622 54.2767376,7.79145622 55.2530483,8.76776695 Z M8.76776695,8.76776695 C9.74407768,7.79145622 11.3269901,7.79145622 12.3033009,8.76776695 L17.2530483,13.7175144 C18.2293591,14.6938252 18.2293591,16.2767376 17.2530483,17.2530483 C16.2767376,18.2293591 14.6938252,18.2293591 13.7175144,17.2530483 L8.76776695,12.3033009 C7.79145622,11.3269901 7.79145622,9.74407768 8.76776695,8.76776695 Z M17.2530483,46.767767 C18.2293591,47.7440777 18.2293591,49.3269901 17.2530483,50.3033009 L12.3033009,55.2530483 C11.3269901,56.2293591 9.74407768,56.2293591 8.76776695,55.2530483 C7.79145622,54.2767376 7.79145622,52.6938252 8.76776695,51.7175144 L13.7175144,46.767767 C14.6938252,45.7914562 16.2767376,45.7914562 17.2530483,46.767767 Z M46.767767,46.767767 C47.7440777,45.7914562 49.3269901,45.7914562 50.3033009,46.767767 L55.2530483,51.7175144 C56.2293591,52.6938252 56.2293591,54.2767376 55.2530483,55.2530483 C54.2767376,56.2293591 52.6938252,56.2293591 51.7175144,55.2530483 L46.767767,50.3033009 C45.7914562,49.3269901 45.7914562,47.7440777 46.767767,46.767767 Z M12,32 C12,33.3807119 10.8807119,34.5 9.5,34.5 L2.5,34.5 C1.11928813,34.5 0,33.3807119 0,32 C0,30.6192881 1.11928813,29.5 2.5,29.5 L9.5,29.5 C10.8807119,29.5 12,30.6192881 12,32 Z M64,32 C64,33.3807119 62.8807119,34.5 61.5,34.5 L54.5,34.5 C53.1192881,34.5 52,33.3807119 52,32 C52,30.6192881 53.1192881,29.5 54.5,29.5 L61.5,29.5 C62.8807119,29.5 64,30.6192881 64,32 Z M32,52 C33.3807119,52 34.5,53.1192881 34.5,54.5 L34.5,61.5 C34.5,62.8807119 33.3807119,64 32,64 C30.6192881,64 29.5,62.8807119 29.5,61.5 L29.5,54.5 C29.5,53.1192881 30.6192881,52 32,52 Z M32,47 C23.7157288,47 17,40.2842712 17,32 C17,23.7157288 23.7157288,17 32,17 C40.2842712,17 47,23.7157288 47,32 C47,40.2842712 40.2842712,47 32,47 Z"/>
  </defs>
  <g fill="none" fill-rule="evenodd" transform="translate(18 18)">
    <use fill="#FFCC01" fill-opacity=".8" xlink:href="#zonnig-a"/>
    <path stroke="#FFCC01" d="M32,0.5 C30.8954305,0.5 30,1.3954305 30,2.5 L30,9.5 C30,10.6045695 30.8954305,11.5 32,11.5 C33.1045695,11.5 34,10.6045695 34,9.5 L34,2.5 C34,1.3954305 33.1045695,0.5 32,0.5 Z M54.8994949,9.12132034 C54.1184464,8.34027176 52.8521164,8.34027176 52.0710678,9.12132034 L47.1213203,14.0710678 C46.3402718,14.8521164 46.3402718,16.1184464 47.1213203,16.8994949 C47.9023689,17.6805435 49.1686989,17.6805435 49.9497475,16.8994949 L54.8994949,11.9497475 C55.6805435,11.1686989 55.6805435,9.90236893 54.8994949,9.12132034 Z M9.12132034,9.12132034 C8.34027176,9.90236893 8.34027176,11.1686989 9.12132034,11.9497475 L14.0710678,16.8994949 C14.8521164,17.6805435 16.1184464,17.6805435 16.8994949,16.8994949 C17.6805435,16.1184464 17.6805435,14.8521164 16.8994949,14.0710678 L11.9497475,9.12132034 C11.1686989,8.34027176 9.90236893,8.34027176 9.12132034,9.12132034 Z M16.8994949,47.1213203 C16.1184464,46.3402718 14.8521164,46.3402718 14.0710678,47.1213203 L9.12132034,52.0710678 C8.34027176,52.8521164 8.34027176,54.1184464 9.12132034,54.8994949 C9.90236893,55.6805435 11.1686989,55.6805435 11.9497475,54.8994949 L16.8994949,49.9497475 C17.6805435,49.1686989 17.6805435,47.9023689 16.8994949,47.1213203 Z M47.1213203,47.1213203 C46.3402718,47.9023689 46.3402718,49.1686989 47.1213203,49.9497475 L52.0710678,54.8994949 C52.8521164,55.6805435 54.1184464,55.6805435 54.8994949,54.8994949 C55.6805435,54.1184464 55.6805435,52.8521164 54.8994949,52.0710678 L49.9497475,47.1213203 C49.1686989,46.3402718 47.9023689,46.3402718 47.1213203,47.1213203 Z M11.5,32 C11.5,30.8954305 10.6045695,30 9.5,30 L2.5,30 C1.3954305,30 0.5,30.8954305 0.5,32 C0.5,33.1045695 1.3954305,34 2.5,34 L9.5,34 C10.6045695,34 11.5,33.1045695 11.5,32 Z M63.5,32 C63.5,30.8954305 62.6045695,30 61.5,30 L54.5,30 C53.3954305,30 52.5,30.8954305 52.5,32 C52.5,33.1045695 53.3954305,34 54.5,34 L61.5,34 C62.6045695,34 63.5,33.1045695 63.5,32 Z M32,52.5 C30.8954305,52.5 30,53.3954305 30,54.5 L30,61.5 C30,62.6045695 30.8954305,63.5 32,63.5 C33.1045695,63.5 34,62.6045695 34,61.5 L34,54.5 C34,53.3954305 33.1045695,52.5 32,52.5 Z M32,46.5 C40.0081289,46.5 46.5,40.0081289 46.5,32 C46.5,23.9918711 40.0081289,17.5 32,17.5 C23.9918711,17.5 17.5,23.9918711 17.5,32 C17.5,40.0081289 23.9918711,46.5 32,46.5 Z"/>
  </g>
</svg>
